<svg fill="none" height="665" viewBox="0 0 664 665" width="664" xmlns="http://www.w3.org/2000/svg" xmlns:xlink="http://www.w3.org/1999/xlink"><filter id="a" color-interpolation-filters="sRGB" filterUnits="userSpaceOnUse" height="144.429" width="144.429" x="50.0398" y="537.389"><feFlood flood-opacity="0" result="BackgroundImageFix"/><feGaussianBlur in="BackgroundImageFix" stdDeviation="15.9435"/><feComposite in2="SourceAlpha" operator="in" result="effect1_backgroundBlur_415_11747"/><feBlend in="SourceGraphic" in2="effect1_backgroundBlur_415_11747" mode="normal" result="shape"/></filter><filter id="b" color-interpolation-filters="sRGB" filterUnits="userSpaceOnUse" height="143.492" width="143.491" x="262.587" y="33.4182"><feFlood flood-opacity="0" result="BackgroundImageFix"/><feGaussianBlur in="BackgroundImageFix" stdDeviation="15.9435"/><feComposite in2="SourceAlpha" operator="in" result="effect1_backgroundBlur_415_11747"/><feBlend in="SourceGraphic" in2="effect1_backgroundBlur_415_11747" mode="normal" result="shape"/></filter><filter id="c" color-interpolation-filters="sRGB" filterUnits="userSpaceOnUse" height="144.429" width="144.429" x="98.2136" y="-7.15849"><feFlood flood-opacity="0" result="BackgroundImageFix"/><feGaussianBlur in="BackgroundImageFix" stdDeviation="15.9435"/><feComposite in2="SourceAlpha" operator="in" result="effect1_backgroundBlur_415_11747"/><feBlend in="SourceGraphic" in2="effect1_backgroundBlur_415_11747" mode="normal" result="shape"/></filter><filter id="d" color-interpolation-filters="sRGB" filterUnits="userSpaceOnUse" height="25.3818" width="29.0839" x="155.816" y="52.4409"><feFlood flood-opacity="0" result="BackgroundImageFix"/><feGaussianBlur in="BackgroundImageFix" stdDeviation="1.56517"/><feComposite in2="SourceAlpha" operator="in" result="effect1_backgroundBlur_415_11747"/><feBlend in="SourceGraphic" in2="effect1_backgroundBlur_415_11747" mode="normal" result="shape"/></filter><filter id="e" color-interpolation-filters="sRGB" filterUnits="userSpaceOnUse" height="145.006" width="145.005" x="382.2" y="300.273"><feFlood flood-opacity="0" result="BackgroundImageFix"/><feGaussianBlur in="BackgroundImageFix" stdDeviation="15.9435"/><feComposite in2="SourceAlpha" operator="in" result="effect1_backgroundBlur_415_11747"/><feBlend in="SourceGraphic" in2="effect1_backgroundBlur_415_11747" mode="normal" result="shape"/></filter><filter id="f" color-interpolation-filters="sRGB" filterUnits="userSpaceOnUse" height="144.429" width="144.429" x="177.588" y="133.175"><feFlood flood-opacity="0" result="BackgroundImageFix"/><feGaussianBlur in="BackgroundImageFix" stdDeviation="15.9435"/><feComposite in2="SourceAlpha" operator="in" result="effect1_backgroundBlur_415_11747"/><feBlend in="SourceGraphic" in2="effect1_backgroundBlur_415_11747" mode="normal" result="shape"/></filter><filter id="g" color-interpolation-filters="sRGB" filterUnits="userSpaceOnUse" height="144.429" width="144.429" x="327.796" y="183.97"><feFlood flood-opacity="0" result="BackgroundImageFix"/><feGaussianBlur in="BackgroundImageFix" stdDeviation="15.9435"/><feComposite in2="SourceAlpha" operator="in" result="effect1_backgroundBlur_415_11747"/><feBlend in="SourceGraphic" in2="effect1_backgroundBlur_415_11747" mode="normal" result="shape"/></filter><filter id="h" color-interpolation-filters="sRGB" filterUnits="userSpaceOnUse" height="143.492" width="143.491" x="219.791" y="271.039"><feFlood flood-opacity="0" result="BackgroundImageFix"/><feGaussianBlur in="BackgroundImageFix" stdDeviation="15.9435"/><feComposite in2="SourceAlpha" operator="in" result="effect1_backgroundBlur_415_11747"/><feBlend in="SourceGraphic" in2="effect1_backgroundBlur_415_11747" mode="normal" result="shape"/></filter><filter id="i" color-interpolation-filters="sRGB" filterUnits="userSpaceOnUse" height="144.429" width="144.429" x="249.802" y="407.966"><feFlood flood-opacity="0" result="BackgroundImageFix"/><feGaussianBlur in="BackgroundImageFix" stdDeviation="15.9435"/><feComposite in2="SourceAlpha" operator="in" result="effect1_backgroundBlur_415_11747"/><feBlend in="SourceGraphic" in2="effect1_backgroundBlur_415_11747" mode="normal" result="shape"/></filter><filter id="j" color-interpolation-filters="sRGB" filterUnits="userSpaceOnUse" height="144.429" width="144.429" x="96.9314" y="383.582"><feFlood flood-opacity="0" result="BackgroundImageFix"/><feGaussianBlur in="BackgroundImageFix" stdDeviation="15.9435"/><feComposite in2="SourceAlpha" operator="in" result="effect1_backgroundBlur_415_11747"/><feBlend in="SourceGraphic" in2="effect1_backgroundBlur_415_11747" mode="normal" result="shape"/></filter><filter id="k" color-interpolation-filters="sRGB" filterUnits="userSpaceOnUse" height="144.429" width="144.429" x="71.6101" y="221.333"><feFlood flood-opacity="0" result="BackgroundImageFix"/><feGaussianBlur in="BackgroundImageFix" stdDeviation="15.9435"/><feComposite in2="SourceAlpha" operator="in" result="effect1_backgroundBlur_415_11747"/><feBlend in="SourceGraphic" in2="effect1_backgroundBlur_415_11747" mode="normal" result="shape"/></filter><filter id="l" color-interpolation-filters="sRGB" filterUnits="userSpaceOnUse" height="144.429" width="144.429" x="290.131" y="527.073"><feFlood flood-opacity="0" result="BackgroundImageFix"/><feGaussianBlur in="BackgroundImageFix" stdDeviation="15.9435"/><feComposite in2="SourceAlpha" operator="in" result="effect1_backgroundBlur_415_11747"/><feBlend in="SourceGraphic" in2="effect1_backgroundBlur_415_11747" mode="normal" result="shape"/></filter><radialGradient id="m" cx="0" cy="0" gradientTransform="matrix(0 349.759 -349.759 0 332 332.938)" gradientUnits="userSpaceOnUse" r="1"><stop offset="0" stop-color="#fff"/><stop offset="1" stop-color="#fff" stop-opacity="0"/></radialGradient><linearGradient id="n" gradientUnits="userSpaceOnUse" x1="141.949" x2="363.282" y1="-81.5932" y2="699.638"><stop offset=".416946"/><stop offset=".880782" stop-opacity=".02"/></linearGradient><linearGradient id="o" gradientUnits="userSpaceOnUse" x1="144.529" x2="169.558" y1="440.397" y2="474.388"><stop offset="0" stop-color="#fff" stop-opacity="0"/><stop offset="1" stop-color="#fff"/></linearGradient><clipPath id="p"><path d="m95.0557 582.407h54.3955v54.3955h-54.3955z"/></clipPath><clipPath id="q"><path d="m0 0h60.0226v60.0226h-60.0226z" transform="matrix(.99999816 .00191836 -.00191836 .99999816 370.055 226.116)"/></clipPath><clipPath id="r"><path d="m294.818 452.982h54.5493v54.5493h-54.5493z"/></clipPath><mask id="s" height="665" maskUnits="userSpaceOnUse" width="592" x="-13" y="0"><path d="m-12.7969 0h591.785v664.938h-591.785z" fill="url(#n)"/></mask><path d="m663.459 504.085v-170.208h.54v-1.879h-.54v-170.207c-.01-41.742-16.254-81.8436-45.296-111.8252v-3.0883h45.296v-1.8917h-43.984l42.234-42.46502-1.287-1.28682-42.221 42.46504v-41.5514h-1.878v42.8382h-3.192c-29.55-28.2475-68.848-44.022917-109.727-44.047812h-343.362c-40.862.038128-80.1388 15.812512-109.6759 44.047812h-3.2041v-42.8382h-1.8659v41.5128l-42.2206-42.46505-1.28682 1.28682 42.22052 42.46503h-41.33261v1.8788h42.61951v3.1398c-29.0461 29.9793-45.29030489 70.0822-45.2961 111.8252v342.294c.00579511 41.742 16.25 81.845 45.2961 111.824v3.14h-42.61951v1.879h41.29401l-42.22052 42.465 1.28682 1.287 42.2206-42.465v41.513h1.8659v-42.839h3.2041c29.5467 28.245 68.8395 44.02 109.7145 44.048h343.362c40.866-.035 80.148-15.809 109.689-44.048h3.191v42.839h1.879v-41.513l42.22 42.465 1.287-1.287-42.233-42.465h44.562v-1.879h-45.836v-3.14c29.035-29.986 45.278-70.084 45.296-111.824zm-1.879 0c-.003 40.577-15.539 79.613-43.417 109.096v-161.277h42.748v-1.866h-42.748v-116.161h43.417zm-212.055-54.047-1.287-1.287c2.136-2.17 4.208-4.401 6.215-6.691v7.978zm4.928 1.879v3.076l-3.062-3.076zm-244.38-1.879v-6.756c1.673 1.866 3.398 3.681 5.148 5.469l-1.287 1.287zm1.995 1.879-1.995 1.982v-1.995zm1.866-236.08 1.287 1.287c-1.75 1.788-3.475 3.616-5.148 5.469v-6.756zm-3.861-1.879v-1.981l1.995 1.994zm244.38 1.879v7.978c-2.007-2.29-4.079-4.521-6.215-6.691l1.287-1.287zm-3.062-1.879 3.062-3.075v3.075zm3.062 118.027h-4.401c-.195-30.873-12.386-60.461-33.997-82.511l30.883-31.012c2.574 2.634 5.088 5.366 7.541 8.197zm1.866-103.1c24.002 29.009 37.192 65.449 37.318 103.1h-37.318zm-41.59 21.876c21.272 21.686 33.271 50.797 33.458 81.173h-114.206zm-82.06 79.783v-114.707c30.272.211 59.256 12.278 80.735 33.612zm-1.879 0-80.748-81.185c21.503-21.295 50.486-33.327 80.748-33.522zm-1.287 1.287h-114.231c.194-30.375 12.192-59.483 33.457-81.173zm0 1.879-80.748 81.172c-21.265-21.689-33.263-50.798-33.457-81.172zm1.287 1.287v115.041c-30.278-.212-59.267-12.284-80.748-33.624zm1.879 0 80.735 81.172c-21.435 21.432-50.425 33.594-80.735 33.869zm1.287-1.287h114.192c-.187 30.376-12.186 59.487-33.457 81.172zm111.631-116.586-30.883 31.025c-16.952-16.817-38.614-28.086-62.115-32.312h91.686zm-112.918-3.166v-43.842c40.782.2 79.967 15.874 109.637 43.855zm-1.879 0h-109.637c29.664-27.989 68.853-43.664 109.637-43.855zm-19.933 1.879c-23.508 4.227-45.179 15.495-62.14 32.312l-30.884-31.025 1.287-1.287zm-94.311 2.574 30.884 31.012c-21.621 22.043-33.815 51.635-33.998 82.511h-3.333v-106.497c2.072-2.381 4.221-4.71 6.447-6.962zm-8.338 113.523h-38.438c.144-38.228 13.753-75.183 38.438-104.374zm0 1.879v104.374c-24.685-29.191-38.294-66.146-38.438-104.374zm1.865 0h3.333c.181 30.872 12.375 60.461 33.998 82.498l-30.884 31.025c-2.226-2.252-4.375-4.581-6.434-6.962zm7.799 114.938 30.883-31.025c16.952 16.811 38.607 28.078 62.102 32.312h-91.673zm112.918 3.166v43.855c-40.784-.191-79.973-15.866-109.637-43.855zm1.879 0h109.637c-29.67 27.981-68.855 43.655-109.637 43.855zm19.92-1.879c23.51-4.221 45.182-15.49 62.14-32.312l30.884 31.025-1.287 1.287zm94.324-2.573-30.884-31.026c21.614-22.042 33.806-51.627 33.998-82.498h4.401v105.327c-2.402 2.779-4.907 5.511-7.515 8.197zm9.406-113.524h37.318c-.126 37.651-13.316 74.091-37.318 103.1zm39.235-1.878c-.143-38.862-14.043-76.418-39.235-106.009v-10.217h98.957c18.627 35.888 28.392 75.714 28.477 116.148zm-39.235-118.028v-4.967l54.278-54.548c17.383 17.606 32.101 37.656 43.688 59.515zm0-7.618v-93.757c19.358 11.092 37.163 24.695 52.953 40.457zm-1.866 1.879-5.7 5.739h-3.719c-30.153-29.178-70.407-45.589-112.365-45.81v-88.6366c42.663.0937 84.591 11.1162 121.784 32.0166zm-123.663-40.071c-41.948.198-82.201 16.581-112.365 45.733h-3.719l-4.633-4.658v-98.313c36.935-20.512 78.469-31.3194 120.717-31.4114zm-122.582 39.209-54.047-54.317c16.091-16.05 34.27-29.862 54.047-41.062zm0 2.664v3.86h-99.086c11.583-21.862 26.302-41.913 43.688-59.515zm0 5.752v8.879c-25.858 29.771-40.165 67.837-40.317 107.269h-88.1854c.0834-40.438 9.8481-80.269 28.4774-116.161zm-40.317 118.027c.152 39.432 14.459 77.499 40.317 107.269v8.892h-100.025c-18.6273-35.888-28.3919-75.714-28.4774-116.148zm40.317 118.027v3.861l-55.334 55.629c-17.386-17.603-32.104-37.653-43.687-59.516zm0 6.537v95.379c-19.777-11.2-37.956-25.012-54.047-41.062zm1.865-1.879 4.633-4.658h3.719c30.162 29.157 70.415 45.545 112.365 45.747v88.662c-42.248-.103-83.781-10.915-120.717-31.425zm122.596 41.089c41.948-.201 82.2-16.584 112.365-45.734h3.719l5.7 5.739v96.615c-37.194 20.898-79.121 31.924-121.784 32.029zm123.65-38.116 52.953 53.236c-15.796 15.755-33.6 29.358-52.953 40.457zm0-2.651v-4.967h97.966c-11.587 21.86-26.305 41.91-43.688 59.515zm0-6.846v-10.14c25.192-29.591 39.092-67.146 39.235-106.008h88.199c-.085 40.434-9.85 80.26-28.477 116.148zm129.3-116.148h30.665v116.148h-58.898c18.476-35.938 28.153-75.751 28.233-116.161zm0-1.879c-.078-40.414-9.755-80.231-28.233-116.174h58.898v116.148zm-29.224-118.027c-11.744-22.365-26.731-42.871-44.472-60.854l103.177-103.6789.09.0772c.386.3989.772.8236 1.158 1.2868v163.1559zm57.29-165.8326-103.088 103.6406c-16.162-16.132-34.418-30.021-54.278-41.294v-63.6334h156.027zm-159.232 61.3046c-37.251-20.7263-79.155-31.6539-121.784-31.7592v-30.8837h121.784zm-121.784-64.4702v-42.16906h121.784v42.16906zm-1.879 0h-120.717v-42.16906h120.717zm0 1.8788v30.8837c-42.214.0988-83.726 10.812-120.717 31.1537v-62.0374zm-122.582 63.0544c-20.27 11.371-38.888 25.464-55.334 41.886l-103.0869-103.6407 1.2868-1.2868h157.1341zm-159.875-60.3907.0772-.0772 103.1258 103.6659c-17.749 17.979-32.74 38.486-44.485 60.854h-59.889v-163.2073c.4504-.4118.7721-.8365 1.171-1.2354zm57.74 166.3087c-18.4743 35.935-28.1507 75.743-28.2332 116.148h-30.6778v-116.148zm-28.2332 118.027c.0785 40.414 9.755 80.232 28.2332 116.174h-58.911v-116.161zm29.2112 118.027c11.745 22.368 26.736 42.875 44.485 60.854l-103.1258 103.679-.0772-.077c-.3989-.399-.7721-.824-1.171-1.287v-163.156zm-57.2768 165.833 103.0868-103.641c16.45 16.423 35.066 30.519 55.334 41.899v63.054h-157.0825zm160.2988-60.699c36.991 20.341 78.503 31.055 120.717 31.153v30.884h-120.717zm120.717 63.864v42.169h-120.717v-42.169zm1.879 0h121.784v42.169h-121.784zm0-1.878v-30.884c42.629-.105 84.533-11.033 121.784-31.759v62.591zm123.65-63.634c19.86-11.273 38.116-25.161 54.278-41.294l103.088 103.641-1.287 1.287h-156.079zm158.781 60.97-.09.077-103.113-103.666c17.742-17.983 32.728-38.489 44.473-60.854h59.888v163.208zm46.48-454.556v170.207h-43.417v-116.161h42.748v-1.879h-42.748v-161.2255c27.869 29.4736 43.404 68.4945 43.417 109.0585zm-51.19-116.8438h-154.071v-42.13046h47.085c39.71.02933 77.936 15.09616 106.986 42.16906zm-450.387-42.16906h48.205v42.16906h-155.1395c29.0526-27.057 67.2725-42.10965 106.9735-42.13046zm-158.13711 501.30686v-342.294c.00802-40.579 15.54791-79.6151 43.43021-109.0971v161.2381h-42.72246v1.905h42.72246v116.148h-42.87688v1.879h42.87688v116.174h-42.72246v1.879h42.72246v161.239c-27.8762-29.476-43.41561-68.502-43.43021-109.071zm51.20261 116.843h155.1395v42.169h-48.166c-39.711-.042-77.9328-15.122-106.9735-42.208zm450.3875 42.169h-47.137v-42.208h154.071c-29.052 27.071-67.276 42.138-106.986 42.169z" fill="url(#m)" opacity=".2"/><g mask="url(#s)"><g filter="url(#a)"><path d="m82.8643 584.71c0-5.128 0-7.691 1.0136-9.643.8542-1.644 2.195-2.985 3.8394-3.839 1.9514-1.014 4.5151-1.014 9.6424-1.014h49.7883c5.128 0 7.691 0 9.643 1.014 1.644.854 2.985 2.195 3.839 3.839 1.014 1.952 1.014 4.515 1.014 9.643v49.789c0 5.127 0 7.691-1.014 9.642-.854 1.644-2.195 2.985-3.839 3.839-1.952 1.014-4.515 1.014-9.643 1.014h-49.7883c-5.1273 0-7.691 0-9.6424-1.014-1.6444-.854-2.9852-2.195-3.8394-3.839-1.0136-1.951-1.0136-4.515-1.0136-9.642z" fill="#fff" fill-opacity=".1"/><path d="m147.148 569.745h-49.7883-.0223c-2.5448 0-4.4835 0-6.0287.129-1.5553.129-2.7538.39-3.8075.938-1.7301.899-3.1407 2.309-4.0394 4.039-.5474 1.054-.809 2.253-.9382 3.808-.1283 1.545-.1283 3.484-.1283 6.028v.023 49.789.022c0 2.545 0 4.483.1283 6.029.1292 1.555.3908 2.753.9382 3.807.8987 1.73 2.3093 3.141 4.0394 4.039 1.0537.548 2.2522.809 3.8075.939 1.5451.128 3.4837.128 6.0284.128h.0226 49.7883.023c2.545 0 4.483 0 6.028-.128 1.556-.13 2.754-.391 3.808-.939 1.73-.898 3.141-2.309 4.039-4.039.548-1.054.809-2.252.939-3.807.128-1.546.128-3.484.128-6.029v-.022-49.789-.023c0-2.544 0-4.483-.128-6.028-.13-1.555-.391-2.754-.939-3.808-.898-1.73-2.309-3.14-4.039-4.039-1.054-.548-2.252-.809-3.808-.938-1.545-.129-3.483-.129-6.028-.129z" stroke="#fff" stroke-opacity=".2" stroke-width=".937853"/></g><g clip-path="url(#p)"><path d="m98.4551 582.407h47.5959l-4.329 48.872-19.521 5.523-19.412-5.525zm38.7339 10.002-29.872-.007.483 5.943 22.948.004-.578 6.156h-15.05l.544 5.832h14.012l-.83 7.984-6.595 1.823-6.7-1.836-.426-4.783h-5.915l.657 8.738 12.386 3.86 12.178-3.468 2.758-30.244z" fill="#fff"/></g><g filter="url(#b)"><path d="m359.185 66.2432h-49.706c-7.77 0-14.068 6.2983-14.068 14.0678v49.706c0 7.77 6.298 14.068 14.068 14.068h49.706c7.77 0 14.068-6.298 14.068-14.068v-49.706c0-7.7695-6.298-14.0678-14.068-14.0678z" fill="#fff" fill-opacity=".1"/><path d="m359.185 65.7742h-49.706c-8.028 0-14.537 6.5083-14.537 14.5368v49.706c0 8.029 6.509 14.537 14.537 14.537h49.706c8.029 0 14.537-6.508 14.537-14.537v-49.706c0-8.0284-6.508-14.5368-14.537-14.5368z" stroke="#fff" stroke-opacity=".2" stroke-width=".937853"/></g><path d="m347.7 127.057c1.568 2.56 3.608 4.442 7.216 4.442 3.031 0 4.967-1.515 4.967-3.608 0-2.508-1.989-3.397-5.325-4.856l-1.829-.784c-5.278-2.249-8.785-5.066-8.785-11.022 0-5.486 4.18-9.662 10.713-9.662 4.65 0 7.994 1.619 10.403 5.857l-5.696 3.657c-1.254-2.249-2.607-3.135-4.707-3.135-2.143 0-3.501 1.359-3.501 3.135 0 2.194 1.359 3.083 4.498 4.442l1.828.783c6.215 2.665 9.724 5.382 9.724 11.491 0 6.586-5.173 10.194-12.121 10.194-6.793 0-11.182-3.238-13.329-7.481zm-25.839.634c1.149 2.039 2.194 3.762 4.707 3.762 2.403 0 3.919-.94 3.919-4.596v-24.872h7.315v24.971c0 7.574-4.441 11.021-10.923 11.021-5.856 0-9.248-3.031-10.973-6.681z" fill="#fff"/><g filter="url(#c)"><rect fill="#fff" fill-opacity=".1" height="78.7796" rx="15.0056" width="78.7796" x="131.038" y="25.6665"/><rect height="79.7175" rx="15.4746" stroke="#fff" stroke-opacity=".2" stroke-width=".937853" width="79.7175" x="130.569" y="25.1976"/></g><g stroke="#fff" stroke-width="2.73905"><path d="m170.251 75.8998c16.572.2699 30.086-4.3646 30.183-10.3514.098-5.9868-13.258-11.0589-29.83-11.3288-16.573-.2699-30.086 4.3646-30.184 10.3514-.097 5.9869 13.258 11.0589 29.831 11.3288z"/><path d="m160.416 70.3146c8.065 13.7141 19.085 22.4772 24.614 19.573 5.528-2.9042 3.472-16.3759-4.593-30.0899s-19.085-22.4771-24.614-19.5729c-5.528 2.9041-3.472 16.3758 4.593 30.0898z"/><path d="m160.594 59.4744c-8.507 13.4441-11.001 26.8417-5.57 29.9244 5.431 3.0826 16.731-5.317 25.238-18.7611 8.507-13.4442 11.001-26.8418 5.57-29.9244-5.431-3.0827-16.731 5.317-25.238 18.7611z"/></g><g filter="url(#d)"><path clip-rule="evenodd" d="m181.769 65.3149c-.776-1.5882-1.641-3.2003-2.593-4.8187-.951-1.617-1.942-3.1611-2.958-4.6215-1.841-.1607-3.748-.2605-5.705-.2924-1.956-.0318-3.866.0059-5.711.1065-1.064 1.4265-2.104 2.9375-3.107 4.5227-1.004 1.5865-1.921 3.1696-2.749 4.7317.776 1.5879 1.641 3.1998 2.593 4.8179.952 1.6195 1.945 3.166 2.963 4.6284 1.84.1605 3.746.2602 5.7.292 1.955.0319 3.863-.0057 5.707-.1062 1.065-1.4285 2.108-2.9418 3.112-4.5295 1.004-1.5863 1.921-3.1691 2.748-4.7309z" fill="#fff" fill-opacity=".2" fill-rule="evenodd"/></g><path d="m170.365 70.3479c3.089.0503 5.631-2.2778 5.679-5.2.047-2.9221-2.418-5.3317-5.506-5.382-3.089-.0503-5.631 2.2778-5.679 5.1999-.047 2.9221 2.418 5.3318 5.506 5.3821z" fill="#fff"/><g filter="url(#e)"><rect fill="#fff" fill-opacity=".1" height="78.7797" rx="14.0678" transform="matrix(.99993441 .01145318 -.01145318 .99993441 3.840468 -4.740015)" width="78.7797" x="415.767" y="332.938"/><rect height="79.7175" rx="14.5367" stroke="#fff" stroke-opacity=".2" stroke-width=".937853" transform="matrix(.99993441 .01145318 -.01145318 .99993441 3.835008 -4.734732)" width="79.7175" x="415.303" y="332.464"/></g><path d="m441.663 367.843c-.009.738.064 1.338.199 1.779.155.441.349.922.622 1.444.098.161.136.321.135.461-.002.2-.125.398-.386.595l-1.268.824c-.181.117-.361.175-.521.173-.199-.002-.398-.104-.595-.286-.276-.303-.512-.625-.708-.946-.196-.342-.391-.724-.605-1.185-1.578 1.818-3.545 2.714-5.901 2.687-1.676-.019-3.008-.513-3.976-1.483-.967-.969-1.451-2.252-1.433-3.849.02-1.697.634-3.067 1.864-4.092 1.229-1.024 2.852-1.524 4.908-1.501.679.008 1.377.076 2.114.184.738.109 1.495.277 2.291.466l.017-1.457c.017-1.517-.29-2.579-.902-3.205-.632-.626-1.706-.938-3.243-.955-.699-.008-1.418.063-2.159.234-.741.172-1.462.383-2.164.654-.321.136-.561.214-.701.252s-.241.057-.32.056c-.28-.003-.417-.204-.412-.624l.011-.978c.003-.319.046-.558.147-.697.102-.138.283-.276.564-.412.703-.352 1.545-.642 2.526-.87.981-.248 2.02-.356 3.118-.344 2.375.028 4.106.587 5.211 1.677 1.086 1.091 1.626 2.734 1.601 4.93l-.074 6.467zm-8.139 2.941c.658.008 1.338-.104 2.06-.336.721-.231 1.365-.663 1.911-1.255.324-.376.568-.793.693-1.27.125-.478.212-1.056.22-1.735l.009-.838c-.577-.146-1.194-.273-1.832-.36-.638-.088-1.257-.135-1.875-.142-1.338-.015-2.319.233-2.984.765-.665.531-.993 1.286-1.004 2.284-.011.938.221 1.64.714 2.125.474.504 1.169.752 2.088.762zm16.004 2.34c-.359-.005-.598-.067-.756-.209-.158-.121-.295-.402-.41-.783l-4.515-15.484c-.115-.401-.172-.661-.17-.801.003-.319.165-.497.485-.493l1.956.022c.379.005.638.067.776.209.158.121.275.402.39.783l3.203 13.253 3.265-13.179c.104-.398.227-.656.388-.774s.442-.195.801-.191l1.597.019c.379.004.638.067.796.208.158.122.295.403.37.783l3.001 13.411 3.607-13.335c.124-.398.267-.656.408-.774.161-.118.421-.195.781-.191l1.856.022c.319.003.497.165.493.504-.001.1-.022.2-.043.319-.022.12-.063.279-.146.498l-4.987 15.375c-.125.398-.267.656-.428.774-.161.117-.422.194-.761.19l-1.717-.019c-.379-.005-.638-.067-.796-.209-.158-.141-.295-.403-.37-.803l-2.947-12.91-3.221 12.82c-.104.398-.227.656-.388.794-.162.138-.442.194-.801.19zm25.645.832c-1.038-.012-2.075-.143-3.07-.394-.996-.251-1.771-.52-2.287-.825-.317-.183-.534-.385-.612-.566s-.116-.381-.114-.56l.012-1.018c.005-.419.167-.617.466-.614.12.002.24.023.359.064s.298.123.497.205c.675.308 1.411.556 2.187.724.797.169 1.575.258 2.373.267 1.258.014 2.238-.194 2.922-.625.684-.432 1.05-1.066 1.06-1.885.006-.559-.168-1.02-.523-1.403-.355-.384-1.03-.731-2.004-1.061l-2.885-.932c-1.452-.476-2.522-1.167-3.17-2.072-.649-.886-.977-1.868-.965-2.906.01-.839.198-1.575.564-2.21.367-.635.852-1.188 1.456-1.62.604-.452 1.287-.784 2.088-1.014.801-.231 1.641-.321 2.519-.311.439.005.898.03 1.337.095.458.065.876.15 1.295.235.398.104.776.208 1.134.332s.636.247.834.369c.278.163.476.325.593.506.118.161.176.381.172.661l-.01.938c-.005.419-.167.637-.467.633-.16-.002-.418-.084-.756-.248-1.131-.532-2.406-.806-3.823-.822-1.138-.013-2.038.156-2.662.528-.623.372-.949.948-.958 1.766-.007.559.188 1.04.582 1.424.395.384 1.13.772 2.184 1.123l2.824.931c1.432.476 2.463 1.126 3.072 1.952.609.825.898 1.767.886 2.805-.01.858-.198 1.635-.545 2.309-.367.675-.853 1.268-1.478 1.74-.624.492-1.367.843-2.228 1.093-.902.269-1.841.398-2.859.386z" fill="#fff"/><path d="m478.835 383.701c-6.623 4.775-16.194 7.241-24.398 7.147-11.498-.132-21.81-4.502-29.554-11.658-.612-.566-.044-1.319.689-.871 8.408 5.008 18.813 8.101 29.613 8.225 7.286.084 15.308-1.342 22.709-4.371 1.104-.487 2.028.741.941 1.528zm2.77-3.083c-.826-1.088-5.543-.583-7.682-.348-.64.073-.733-.487-.149-.9 3.783-2.592 9.942-1.762 10.65-.876.709.907-.28 7.064-3.827 9.978-.544.453-1.061.208-.814-.388.821-1.967 2.648-6.399 1.822-7.466z" fill="#fff"/><g filter="url(#f)"><rect fill="#fff" fill-opacity=".1" height="78.7797" rx="14.0678" width="78.7797" x="210.412" y="166"/><rect height="79.7175" rx="14.5367" stroke="#fff" stroke-opacity=".2" stroke-width=".937853" width="79.7175" x="209.943" y="165.531"/></g><path d="m229.67 214.575 5.914-38.045c.043-.282.174-.543.374-.747.2-.203.459-.338.74-.386s.57-.005.826.121.466.33.599.582l6.36 11.932zm42.004 9.232-5.632-35.012c-.042-.245-.15-.475-.313-.663-.162-.188-.374-.328-.611-.404s-.49-.086-.732-.028-.464.182-.64.357l-35.515 35.75 19.651 11.074c.606.341 1.289.52 1.984.52.696 0 1.379-.179 1.985-.52zm-15.969-30.553-4.552-8.708c-.115-.219-.287-.403-.499-.531-.211-.128-.454-.195-.701-.195-.248 0-.49.067-.702.195-.211.128-.384.312-.499.531l-19.983 35.809z" fill="#fff"/><g filter="url(#g)"><rect fill="#fff" fill-opacity=".1" height="78.7797" rx="14.0678" width="78.7797" x="360.62" y="216.795"/><rect height="79.7175" rx="14.5367" stroke="#fff" stroke-opacity=".2" stroke-width=".937853" width="79.7175" x="360.151" y="216.326"/></g><g clip-path="url(#q)"><path d="m369.959 276.345c.105 1.326.57 2.66 1.787 4.45 1.447 2.126 3.935 3.297 5.757 1.429 1.228-1.26 14.538-24.421 20.947-33.197.176-.251.41-.456.682-.597s.574-.214.88-.214c.306.001.608.075.88.217.271.143.504.348.679.6 6.376 8.8 19.596 32.012 20.819 33.277 1.815 1.875 4.308.714 5.762-1.407 1.43-2.085 1.828-3.547 1.831-5.113.002-1.065-20.582-39.549-22.657-42.755-1.994-3.08-2.603-3.751-5.987-3.868l-2.581-.005c-3.384.104-3.995.771-6.005 3.845-2.041 3.13-21.962 40.023-22.792 42.553z" fill="#fff"/></g><g filter="url(#h)"><path d="m322.855 303.864h-62.638c-4.198 0-7.602 3.404-7.602 7.602v62.638c0 4.199 3.404 7.602 7.602 7.602h62.638c4.199 0 7.602-3.403 7.602-7.602v-62.638c0-4.198-3.403-7.602-7.602-7.602z" fill="#fff" fill-opacity=".1"/><path d="m322.855 303.395h-62.638c-4.457 0-8.071 3.614-8.071 8.071v62.638c0 4.458 3.614 8.071 8.071 8.071h62.638c4.458 0 8.071-3.613 8.071-8.071v-62.638c0-4.457-3.613-8.071-8.071-8.071z" stroke="#fff" stroke-opacity=".2" stroke-width=".937853"/></g><path clip-rule="evenodd" d="m300.517 365.852v7.602c1.231.639 2.736 1.11 4.409 1.429 1.672.319 3.496.471 5.321.471 1.824 0 3.497-.167 5.169-.516 1.672-.35 3.041-.928 4.257-1.673 1.231-.806 2.281-1.824 2.889-3.193.608-1.368 1.079-2.888 1.079-4.865 0-1.383-.213-2.584-.623-3.649-.411-1.064-1.004-1.976-1.825-2.736-.775-.806-1.672-1.521-2.736-2.129-1.065-.608-2.281-1.246-3.649-1.824-1.004-.411-1.825-.806-2.737-1.201-.79-.395-1.474-.791-1.976-1.186-.563-.411-.988-.836-1.292-1.277-.305-.456-.457-.958-.457-1.52 0-.517.136-.989.411-1.414.275-.426.654-.776 1.14-1.08.487-.304 1.095-.532 1.825-.699.714-.167 1.505-.243 2.432-.243.639 0 1.308.047 1.977.142.699.096 1.414.244 2.128.441.715.198 1.414.441 2.129.745.669.304 1.292.654 1.824 1.049v-7.145c-1.155-.441-2.433-.776-3.801-.988-1.368-.213-2.889-.32-4.713-.32s-3.497.198-5.169.578c-1.673.38-3.041.988-4.257 1.824-1.232.821-2.129 1.825-2.889 3.193-.714 1.277-1.064 2.737-1.064 4.561 0 2.281.654 4.257 1.976 5.777 1.308 1.673 3.345 2.889 5.93 4.105 1.049.426 1.976.852 2.888 1.262.913.411 1.673.837 2.281 1.277.654.441 1.171.928 1.52 1.445.38.517.578 1.125.578 1.824 0 .487-.119.943-.35 1.368-.231.426-.593.791-1.079 1.095-.487.304-1.08.547-1.824.73-.715.167-1.521.258-2.585.258-1.672 0-3.345-.289-4.865-.866-1.673-.578-3.193-1.445-4.561-2.585zm-12.771-18.7h9.73v-6.233h-27.214v6.233h9.73v27.822h7.754z" fill="#fff" fill-rule="evenodd"/><g filter="url(#i)"><rect fill="#fff" fill-opacity=".1" height="78.7797" rx="14.0678" width="78.7797" x="282.627" y="440.791"/><rect height="79.7175" rx="14.5367" stroke="#fff" stroke-opacity=".2" stroke-width=".937853" width="79.7175" x="282.158" y="440.322"/></g><g clip-path="url(#r)"><path d="m322.093 453.657c-15.068 0-27.275 12.217-27.275 27.275 0 12.057 7.815 22.276 18.644 25.882 1.369.257 1.864-.587 1.864-1.316 0-.648-.016-2.361-.026-4.635-7.591 1.643-9.19-3.667-9.19-3.667-1.243-3.144-3.036-3.987-3.036-3.987-2.468-1.686.196-1.65.196-1.65 2.734.185 4.173 2.804 4.173 2.804 2.433 4.173 6.382 2.966 7.946 2.264.238-1.758.949-2.967 1.723-3.64-6.055-.684-12.422-3.027-12.422-13.479 0-2.985 1.057-5.415 2.804-7.325-.301-.683-1.225-3.462.241-7.219 0 0 2.282-.728 7.5 2.797 2.184-.605 4.502-.906 6.819-.922 2.318.016 4.635.319 6.818.922 5.188-3.525 7.469-2.797 7.469-2.797 1.464 3.757.54 6.534.274 7.219 1.73 1.91 2.787 4.342 2.787 7.325 0 10.475-6.375 12.785-12.437 13.452.948.816 1.836 2.495 1.836 5.044 0 3.648-.034 6.587-.034 7.475 0 .709.477 1.561 1.882 1.287 10.91-3.568 18.715-13.796 18.715-25.836 0-15.057-12.207-27.275-27.274-27.275z" fill="#fff"/></g><g filter="url(#j)"><rect fill="#fff" fill-opacity=".1" height="78.7797" rx="14.0678" width="78.7797" x="129.756" y="416.407"/><rect height="79.7175" rx="14.5367" stroke="#fff" stroke-opacity=".2" stroke-width=".937853" width="79.7175" x="129.287" y="415.938"/></g><path d="m194.178 438.911-23.207 41.498c-.479.857-1.71.862-2.197.009l-23.667-41.503c-.53-.929.265-2.055 1.318-1.866l23.232 4.152c.148.027.3.026.448-.001l22.746-4.146c1.049-.191 1.847.926 1.327 1.857z" fill="url(#o)"/><path d="m180.723 431.602-17.174 3.365c-.137.027-.261.099-.353.204s-.147.238-.155.378l-1.056 17.842c-.006.098.011.196.049.286.039.09.098.17.173.233s.163.108.259.131c.095.023.194.024.29.002l4.781-1.104c.448-.103.852.291.76.741l-1.421 6.956c-.095.469.344.869.801.73l2.954-.897c.458-.139.898.262.801.731l-2.258 10.926c-.141.684.768 1.057 1.147.471l.253-.392 13.995-27.928c.234-.467-.17-1-.684-.901l-4.922.95c-.462.089-.855-.342-.725-.794l3.212-11.136c.131-.454-.264-.885-.727-.794z" fill="#fff"/><g filter="url(#k)"><rect fill="#fff" fill-opacity=".1" height="78.7797" rx="14.0678" width="78.7797" x="104.435" y="254.158"/><rect height="79.7175" rx="14.5367" stroke="#fff" stroke-opacity=".2" stroke-width=".937853" width="79.7175" x="103.966" y="253.689"/></g><path d="m156.753 293.795v.052.07.053.053l.018.07v.052.053l.017.07v.053l.018.052.017.071v.052l.018.07.017.053.018.07v.07l.017.053.018.07.018.07.017.053.035.07.018.07.017.07.018.07.017.071.035.07.018.087.017.071.036.07.017.07.035.088.018.07.035.088.017.087.035.088.036.07.017.088.035.088.035.087.018.105.035.088.017.088.035.105.036.088.017.105.035.105.035.088.018.105.035.105.035.106.017.123.036.105.017.105.035.123.018.105.035.123.017.123.018.122.035.123.018.123.017.123.018.14.035.123.017.14.018.123.017.14v.141l.018.14.017.14.018.141v.14l.017.14v.158.14l.018.158v.158.14.158l-.018.158v.158.158l-.017.175v.158l-.018.158-.017.175-.018.176-.017.158-.018.175-.017.176-.035.175-.035.158-.018.175-.035.193-.035.176-.035.175-.053.175-.035.176-.053.193-.052.175-.053.193-.052.175-.053.193-.07.176-.053.193-.07.193-.07.175-.07.193-.071.193-.087.175-.07.193-.088.193-.088.193-.087.176-.106.193-.087.193-.106.192-.105.193-.105.176-.105.193-.123.193-.105.193-.123.175-.123.193-.123.193-.14.175-.123.193-.14.176-.141.193-.14.175-.158.193-.14.175-.158.176-.158.175-.158.176-.157.193-.176.157-.158.176-.175.175-.176.176-.193.158-.175.175-.193.158-.193.175-.193.158-.193.158-.193.158-.21.158-.211.14-.193.158-.228.14-.21.158-.211.14-.228.141-.228.14-.228.14-.228.123-.228.14-.245.123-.228.123-.246.123-.245.123-.246.105-.246.123-.245.105-.263.105-.263.105-.246.088-.263.105-.263.088-.281.088-.263.087-.263.071-.281.087-.28.07-.263.071-.281.07-.281.052-.28.07-.281.053-.298.053-.281.035-.298.052-.281.036-.298.035-.28.035-.299.017-.298.018-.298.017-.298.018h-.298l-.299.017h-.298l-.298-.017h-.298l-.316-.018-.298-.017-.298-.018-.316-.035-.298-.035-.298-.035-.316-.035-.298-.053-.298-.052-.316-.053-.298-.053-.299-.07-.298-.07-.316-.07-.298-.07-.298-.088-.298-.088-.298-.087-.298-.106-.299-.087-.298-.106-.298-.122-.298-.106-.298-.122-.281-.123-.298-.123-.281-.14-.298-.141-.281-.14-.28-.14-.281-.158-.281-.158-.28-.158-.281-.158-.281-.175-.263-.175-.28-.176-.263-.175-.264-.193-.263-.176-.263-.193-.245-.21-.263-.193-.246-.21-.246-.211-.245-.21-.246-.211-.245-.228-.228-.228-.246-.228-.228-.228-.228-.228-.21-.246-.228-.245-.211-.246-.21-.245-.211-.246-.21-.263-.193-.246-.211-.263-.193-.263-.193-.28-.175-.264-.176-.28-.192-.263-.176-.281-.158-.281-.175-.28-.158-.298-.158-.281-.14-.298-.158-.281-.14-.298-.141-.298-.14-.298-.123-.299-.123-.298-.122-.316-.123-.298-.105-.316-.106-.298-.105-.315-.105-.316-.088-.316-.088-.316-.087-.315-.07-.316-.088-.316-.053-.316-.07-.315-.07-.316-.053-.316-.052-.333-.035-.316-.035-.315-.036-.334-.035-.315-.035-.316-.017-.333-.018-.316v-.316l-.017-.333v-.316-.316l.017-.333v-.316l.018-.315.035-.316.017-.316.035-.316.036-.315.035-.316.052-.316.053-.315.053-.316.052-.298.07-.316.07-.298.071-.316.07-.298.087-.298.088-.299.088-.298.088-.298.105-.298.088-.298.105-.281.123-.281.105-.298.123-.28.122-.281.123-.281.123-.263.14-.281.141-.263.14-.28.14-.263.158-.263.14-.246.158-.263.158-.246.158-.263.158-.245.175-.246.176-.228.175-.246.175-.228.176-.228.175-.228.193-.228.193-.228.176-.21.193-.211.21-.21.193-.211.193-.21.21-.193.193-.193.211-.193.21-.193.211-.193.21-.175.211-.176.228-.175.21-.175.228-.158.211-.158.228-.158.228-.158.228-.158.21-.14.228-.14.228-.141.246-.14.228-.123.228-.14.228-.123.228-.105.246-.123.228-.105.228-.123.245-.105.228-.088.246-.105.228-.088.245-.088.228-.087.246-.088.228-.07.228-.07.246-.07.228-.071.245-.07.228-.052.228-.053.246-.053.228-.052.228-.053.245-.035.229-.035.228-.035.228-.035.228-.035.228-.018.228-.017.228-.018.228-.017.21-.018h.228l.228-.018h.211.228l.21.018h.211.21l.211.018.21.017.211.018.21.017.211.018.193.035.21.017.193.035.211.035.192.036.193.035.193.035.193.052.176.035.193.053.175.035.193.053.175.052.176.053.175.053.176.07.175.052.158.053.175.07.158.053.158.07.158.07.158.07.158.07.157.071.158.07.141.07.14.07.158.07.14.07.14.088.123.07.141.07.14.088.123.07.122.088.141.07.123.088.105.088.123.07.122.087.106.071.122.087.106.088.105.07.105.088.105.088.106.07.105.087.088.088.105.07.088.088.105.088.087.07.088.088.088.087.088.07.07.088.087.07.088.088.07.07.07.07.088.088.07.07.07.07.071.088.07.07.07.07.07.071.053.07.07.07.053.07.07.07.052.07.07.053.053.07.053.07.052.053.071.07.052.07.053.053.052.052.053.071.053.052.052.053.035.052.053.053.053.053.052.052.053.053.035.053.053.052.052.035.053.053.035.035.052.053.053.035.035.052.053.035.052.035.035.036.053.035.053.035.035.035.052.035.053.035.053.035.035.035.052.018.053.035.053.035.052.017.053.035.052.018.053.035.053.018.052.017.053.035.053.018.07.017.052.018.053.017.07.035.053.018.07.018.053.017.07.018.07.017.07.018.053.017.07.018.07.017.07.018h.07l.088.017.07.018.07.018.088.017.07.018.088.017.07.018.088.017.087.018.088.017.088.018.088.017.087.018.088.017.088.018.105.018.088.035.105.017.088.018.105.035.088.017.105.018.105.035.105.035.106.018.105.035.123.035.105.017.105.035.123.035.105.036.123.052.105.035.123.035.123.053.122.035.106.053.122.035.123.052.123.053.14.053.123.052.123.053.123.07.14.053.123.07.123.052.14.071.123.07.14.07.14.07.123.07.14.088.123.07.141.088.14.087.14.088.123.088.14.088.141.105.14.088.14.105.123.105.14.105.141.105.14.106.14.105.123.123.14.123.141.122.14.123.123.123.14.123.141.14.122.14.141.123.122.14.141.158.123.141.14.14.123.158.122.158.123.158.123.157.123.158.123.176.122.158.123.175.123.175.123.176.105.175.123.193.105.175.105.193.105.193.106.193.105.193.105.193.105.211.088.21.105.193.088.211.088.21.087.228.088.211.088.21.07.228.088.228.07.228.07.228.07.228.07.228.071.228.052.246.053.245.052.228.053.246.053.246.052.245.035.246.035.263.036.245.035.246.035.263.017.263.018.246.017.263.018.263.017.263v.263.263.263.281l-.017.263-.018.263-.017.281-.018.263-.017.281-.035.263-.035.28-.036.263-.035.281-.052.281-.053.263-.053.281-.052.28-.07.263-.07.281-.071.281-.07.263-.07.28-.088.281-.087.263-.088.281-.105.263-.106.281-.105.263-.105.28-.105.263-.123.281-.123.263-.123.263-.14.263-.14.263-.123.264-.158.263-.14.263-.158.263-.158.263-.158.246-.158.263-.175.245-.175.246-.176.263-.175.245-.193.228-.176.246-.193.246-.21.228-.193.245-.211.228-.21.228-.21.228-.211.228-.228.228-.228.211-.211.21-.245.211-.228.21-.246.211-.228.21-.245.193-.246.193-.263.193-.246.193-.263.193-.263.175-.263.176-.263.175-.281.176-.263.175-.28.158-.281.158-.281.158-.28.157-.281.141-.298.14-.281.14-.298.141-.298.123-.298.14-.299.105-.298.123-.315.123-.299.105-.315.105-.299.105-.315.088-.316.088-.316.088-.315.087-.316.07-.316.071-.316.07-.333.07-.316.052-.315.053-.334.053-.315.035-.334.035-.333.035-.316.035-.333.018-.316.017-.333.018-.333.017h-.333-.316-.333l-.334-.017-.315-.018-.334-.017-.333-.018-.316-.035-.333-.035-.316-.035-.333-.053-.316-.052-.333-.053-.316-.053-.315-.07-.334-.07-.315-.07-.316-.07-.316-.088-.316-.088-.315-.087-.299-.106-.315-.087-.298-.106-.316-.122-.298-.106-.299-.122-.315-.123-.281-.123-.298-.14-.298-.123-.298-.14-.281-.158-.281-.141-.298-.157-.281-.158-.263-.158-.28-.158-.281-.175-.263-.176-.263-.175-.263-.176-.263-.175-.264-.193-.245-.193-.246-.193-.263-.193-.228-.21-.245-.193-.246-.211-.228-.21-.228-.211-.228-.228-.228-.21-.211-.228-.228-.228-.21-.211-.211-.245-.192-.228-.211-.228-.193-.246-.193-.246-.175-.228-.193-.245-.176-.246-.175-.263-.175-.245-.176-.246-.158-.263-.158-.246-.157-.263-.158-.263-.141-.263-.14-.263-.14-.263-.141-.263-.122-.263-.123-.264-.123-.28-.123-.263-.105-.263-.123-.281-.087-.263-.106-.281-.105-.263-.088-.281-.087-.28-.088-.263-.07-.281-.07-.281-.071-.263-.07-.28-.052-.281-.07-.263-.053-.281-.053-.28-.035-.263-.035-.281-.052-.263-.018-.281-.035-.263-.018-.281-.035-.263v-.28l-.017-.263-.018-.264v-.28-.263-.263l.018-.264v-.263l.017-.263.018-.263.017-.245.035-.264.018-.245.035-.263.035-.246.035-.263.053-.245.035-.246.053-.246.052-.245.053-.228.07-.246.053-.228.07-.245.07-.228.07-.228.07-.228.07-.228.088-.229.07-.21.088-.228.088-.21.087-.211.088-.21.088-.211.105-.21.088-.193.105-.211.105-.193.105-.193.106-.193.105-.193.105-.193.123-.175.105-.193.123-.175.123-.176.105-.175.123-.176.123-.157.122-.176.123-.158.123-.158.123-.157.14-.158.123-.141.123-.157.14-.141.123-.14.14-.14.123-.141.14-.14.14-.123.123-.14.141-.123.14-.123.123-.123.14-.105.14-.123.141-.105.14-.105.123-.123.14-.105.14-.088.141-.105.14-.088.123-.105.14-.088.14-.087.141-.088.123-.088.14-.087.14-.071.123-.07.14-.088.141-.07.122-.07.141-.07.123-.07.14-.053.123-.07.122-.053.141-.052.123-.07.122-.053.123-.053.123-.035.123-.052.122-.053.123-.035.123-.053.105-.035.123-.052.123-.035.105-.035.123-.036.105-.035.105-.035.123-.035.105-.017.106-.035.105-.036.105-.017.105-.035.106-.018.087-.035.106-.017.105-.018.087-.035.106-.017.087-.018.088-.018.088-.017.088-.018.087-.017.088-.018.088-.017.087-.018.088-.017.07-.018.088-.017.07-.018.088-.017.07-.018.07-.018.07-.017.07-.018.088-.017.053-.018h.07l.07-.017.07-.018.07-.017.053-.018.07-.017.053-.036.07-.017.053-.018.07-.017.052-.018.053-.017.053-.035.07-.018.052-.017.053-.035.053-.018.052-.018.053-.035.052-.035.036-.017.052-.035.053-.035.052-.018.053-.035.035-.035.053-.035.052-.035.053-.035.035-.035.053-.036.052-.052.035-.035.053-.035.053-.053.035-.035.052-.053.053-.035.035-.052.053-.053.052-.053.053-.035.035-.052.053-.053.052-.053.053-.07.052-.052.053-.053.053-.053.052-.07.053-.052.053-.07.052-.053.053-.07.07-.07.053-.053.052-.07.07-.07.053-.071.07-.07.07-.07.053-.07.07-.07.07-.07.07-.071.071-.087.07-.07.07-.071.088-.087.07-.07.07-.071.088-.087.087-.07.071-.088.087-.07.088-.088.088-.088.087-.07.106-.088.087-.07.106-.087.087-.088.105-.07.106-.088.105-.088.105-.07.105-.088.106-.087.122-.07.106-.088.122-.088.123-.07.123-.088.123-.087.123-.071.122-.087.141-.07.123-.071.14-.087.14-.07.14-.088.141-.07.14-.07.158-.071.14-.07.158-.07.158-.07.14-.07.158-.07.176-.071.158-.052.157-.07.176-.053.158-.07.175-.053.175-.052.176-.053.175-.053.176-.052.193-.053.175-.053.193-.035.193-.052.193-.035.175-.035.211-.053.193-.035.193-.018.193-.035.21-.035.211-.017.192-.018.211-.017.21-.018.211-.017.21-.018h.211l.228-.018h.21.211l.228.018h.228.21l.228.018.229.017.228.018.228.017.228.035.228.018.228.035.228.035.228.035.228.053.245.035.228.052.228.053.246.07.228.053.228.07.246.053.228.07.245.087.228.071.246.087.228.088.245.088.228.087.246.106.228.105.228.105.246.105.228.106.228.122.245.123.228.123.228.123.228.14.228.123.228.14.228.158.228.14.228.158.228.158.211.158.228.158.21.158.228.175.211.175.21.176.211.193.21.175.211.193.21.193.211.193.193.211.193.192.21.211.193.21.193.211.193.228.175.21.193.228.176.228.175.229.176.245.175.228.175.246.158.245.176.246.158.263.157.245.158.264.141.245.157.263.141.281.14.263.123.263.14.281.123.28.14.264.106.28.122.298.123.281.105.281.106.298.105.298.088.281.087.298.088.298.088.298.087.316.07.298.071.298.07.316.07.298.053.316.052.316.053.315.035.299.035.315.035.316.035.316.035.333.018.316.017.316v.315l.018.316v.333.316l-.018.316v.333l-.017.316-.035.315-.018.334-.035.315-.035.316-.035.333-.053.316-.052.316-.053.333-.07.316-.053.316-.07.315-.088.316-.07.316-.087.316-.088.315-.088.316-.105.316-.105.298-.106.316-.122.298-.106.316-.122.298-.123.298-.14.316-.141.298-.14.281-.14.298-.141.298-.158.281-.158.298-.157.28-.176.281-.158.281-.175.28-.193.281-.175.263-.193.281-.193.263-.193.263-.193.263-.193.246-.211.263-.21.245-.211.246-.228.245-.21.246-.228.246-.228.228-.228.228-.228.228-.246.228-.245.21-.246.228-.245.211-.246.21-.246.193-.263.211-.245.193-.263.192-.263.193-.264.176-.28.175-.263.176-.281.175-.263.175-.281.158-.28.158-.281.158-.281.14-.28.158-.299.141-.28.122-.281.141-.298.122-.298.123-.281.123-.298.123-.298.105-.298.105-.299.088-.298.105-.298.088-.298.088-.316.087-.298.07-.298.071-.298.07-.316.07-.298.053-.299.052-.315.053-.298.035-.299.053-.315.035-.299.035-.298.017-.316.018-.298.017-.298.018h-.298l-.298.017h-.298l-.316-.017h-.298l-.281-.018-.298-.017-.298-.018-.299-.035-.298-.017-.28-.035-.299-.053-.28-.035-.298-.053-.281-.052-.281-.053-.28-.053-.281-.07-.281-.07-.28-.07-.263-.07-.281-.07-.263-.088-.281-.088-.263-.088-.263-.087-.263-.106-.246-.105-.263-.087-.245-.106-.263-.123-.246-.105-.246-.123-.245-.122-.246-.123-.228-.123-.245-.123-.228-.122-.228-.141-.228-.14-.228-.14-.211-.141-.228-.14-.21-.14-.211-.158-.21-.141-.211-.157-.193-.158-.193-.158-.21-.158-.193-.158-.176-.175-.193-.158-.175-.158-.193-.175-.175-.176-.176-.175-.158-.176-.175-.175-.158-.175-.158-.176-.158-.175-.157-.176-.141-.175-.158-.193-.14-.175-.14-.193-.123-.176-.14-.193-.123-.175-.123-.193-.123-.193-.123-.193-.122-.175-.106-.193-.105-.193-.123-.193-.087-.176-.106-.193-.105-.193-.087-.192-.088-.193-.088-.176-.088-.193-.07-.193-.087-.193-.071-.175-.07-.193-.07-.193-.07-.175-.053-.193-.07-.176-.053-.193-.052-.175-.053-.193-.052-.175-.035-.193-.053-.176-.035-.175-.035-.176-.035-.175-.035-.193-.035-.175-.018-.158-.035-.176-.018-.175-.017-.175-.018-.158-.017-.176-.018-.158-.017-.175v-.158l-.018-.158v-.175l-.017-.158v-.158-.14-.158-.158l.017-.14v-.158-.14l.018-.158.017-.141v-.14l.018-.14.017-.14.018-.141.017-.123.018-.14.017-.14.018-.123.018-.123.017-.123.035-.122.018-.123.017-.123.035-.123.018-.123.035-.105.017-.123.036-.105.017-.123.035-.105.018-.105.035-.105.035-.106.017-.105.035-.087.036-.106.017-.087.035-.106.035-.087.018-.088.035-.105.017-.088.036-.088.035-.087.017-.071.035-.087.018-.088.035-.07.017-.088.035-.07.018-.088.035-.07.018-.07.035-.088.017-.07.018-.07.017-.07.035-.07.018-.053.017-.07.018-.07.018-.071.017-.07.018-.052.017-.07v-.053l.018-.07.017-.053.018-.07v-.053l.017-.07v-.052l.018-.053v-.07-.053l.017-.052v-.071-.052-.053-.07-.053-.052-.07l-.017-.053v-.053-.07l-.018-.052v-.053-.07l-.017-.053-.018-.07v-.053l-.017-.07-.018-.052-.017-.071-.018-.052-.017-.07-.018-.071-.018-.052-.017-.07-.018-.07-.017-.071-.018-.07-.017-.07-.035-.07-.018-.07-.017-.07-.035-.088-.018-.07-.035-.07-.018-.088-.035-.07-.017-.088-.035-.088-.018-.087-.035-.071-.035-.087-.018-.088-.035-.088-.035-.105-.017-.088-.035-.087-.018-.106-.035-.087-.035-.106-.018-.105-.035-.105-.035-.105-.017-.106-.035-.105-.018-.105-.035-.105-.035-.123-.018-.105-.035-.123-.017-.123-.018-.105-.035-.123-.017-.123-.018-.14-.017-.123-.036-.123-.017-.14-.018-.123-.017-.14-.018-.123-.017-.14v-.14l-.018-.141-.017-.14v-.158l-.018-.14v-.158-.14l-.017-.158v-.141-.157-.158l.017-.158v-.158-.158l.018-.175v-.158l.017-.158.018-.175.017-.158.018-.176.017-.175.035-.176.018-.175.035-.175.035-.176.035-.175.035-.176.035-.175.035-.175.053-.193.053-.176.035-.175.052-.193.053-.175.07-.193.053-.176.07-.193.07-.193.07-.175.07-.193.071-.193.087-.193.07-.175.088-.193.088-.193.088-.193.105-.176.088-.193.105-.193.105-.192.105-.193.106-.176.122-.193.123-.193.105-.193.123-.175.14-.193.123-.175.141-.193.14-.193.14-.176.141-.175.14-.193.158-.175.158-.176.157-.175.158-.193.158-.176.176-.175.157-.158.176-.175.193-.176.175-.158.176-.175.193-.158.192-.175.193-.158.193-.158.211-.158.193-.14.21-.158.211-.158.21-.14.211-.141.228-.157.228-.141.21-.122.228-.141.228-.14.246-.123.228-.123.245-.122.246-.123.246-.123.245-.105.246-.123.245-.105.263-.106.264-.105.245-.087.263-.106.263-.087.281-.088.263-.088.263-.07.281-.088.28-.07.281-.07.263-.07.281-.053.298-.052.281-.053.28-.053.281-.052.298-.035.298-.035.281-.036.298-.035.298-.017.299-.035h.28l.298-.018.299-.017h.315.299l.298.017h.298l.298.018.298.017.316.035.298.018.298.035.316.035.298.053.298.035.316.052.298.053.299.07.315.053.299.07.298.088.298.07.316.088.298.087.298.088.298.105.298.105.299.106.298.105.28.123.299.122.298.123.28.123.299.14.28.141.281.14.298.14.281.158.28.158.263.158.281.158.281.175.263.176.281.175.263.175.263.193.263.193.263.193.246.193.263.193.245.211.246.21.245.211.246.228.245.21.228.228.229.228.228.228.228.246.228.245.21.228.228.246.211.263.21.246.193.263.211.245.192.263.193.263.193.281.176.263.193.281.175.263.176.281.157.28.158.298.176.281.158.281.14.298.158.298.14.281.14.298.123.298.14.316.123.298.123.298.105.316.106.298.105.316.105.316.105.298.088.316.088.315.087.316.07.316.071.315.07.316.07.333.053.316.052.316.053.316.052.333.036.316.035.315.017.334.035.315.018.316.017.333.018.316v.316.333.316l-.018.316-.017.333-.018.316-.017.315-.035.316-.018.316-.035.315-.053.316-.035.316-.052.298-.053.316-.07.316-.07.298-.053.315-.088.299-.07.298-.087.316-.088.298-.088.298-.088.298-.105.281-.105.298-.105.281-.106.298-.122.28-.106.281-.122.281-.141.28-.122.281-.141.263-.123.263-.157.281-.141.263-.14.263-.158.246-.158.263-.158.245-.158.263-.157.246-.176.228-.175.246-.176.245-.175.228-.175.228-.176.228-.193.228-.193.211-.193.228-.193.21-.193.211-.192.21-.211.193-.193.193-.21.211-.211.175-.21.193-.211.193-.21.175-.211.176-.21.175-.228.158-.211.175-.228.158-.228.158-.21.158-.228.14-.228.158-.228.141-.228.14-.228.123-.229.14-.245.123-.228.123-.228.122-.228.106-.246.122-.228.106-.245.105-.228.088-.228.105-.246.087-.228.088-.246.088-.228.088-.245.07-.228.07-.246.07-.228.07-.228.053-.245.07-.228.053-.246.052-.228.053-.228.035-.228.035-.246.053-.228.035-.228.017-.228.035-.228.018-.228.017-.21.018-.228.018-.228.017h-.228l-.211.018h-.228-.21l-.211-.018h-.228l-.21-.017h-.211l-.21-.018-.211-.018-.193-.017-.21-.035-.211-.018-.193-.035-.21-.017-.193-.035-.193-.035-.193-.036-.193-.052-.193-.035-.175-.053-.193-.035-.176-.053-.192-.052-.176-.053-.175-.052-.176-.053-.175-.053-.176-.07-.157-.052-.176-.071-.158-.052-.158-.07-.157-.071-.158-.052-.158-.07-.158-.071-.14-.07-.158-.087-.14-.071-.141-.07-.14-.07-.14-.088-.141-.07-.14-.07-.123-.088-.14-.07-.123-.087-.123-.071-.123-.087-.122-.071-.123-.087-.105-.088-.123-.07-.105-.088-.106-.087-.122-.071-.106-.087-.105-.088-.088-.07-.105-.088-.105-.088-.088-.07-.087-.087-.106-.088-.087-.07-.088-.088-.088-.07-.088-.088-.07-.088-.087-.07-.071-.07-.087-.088-.07-.07-.071-.088-.087-.07-.07-.07-.071-.07-.07-.088-.052-.07-.071-.07-.07-.07-.07-.07-.053-.071-.07-.07-.052-.052-.053-.07-.07-.071-.053-.07-.052-.052-.053-.071-.053-.052-.052-.07-.053-.053-.052-.053-.053-.07-.053-.052-.052-.053-.053-.053-.053-.052-.035-.053-.052-.052-.053-.036-.052-.052-.036-.053-.052-.035-.053-.052-.035-.036-.053-.052-.052-.035-.035-.035-.053-.053-.052-.035-.053-.035-.035-.035-.053-.035-.052-.035-.035-.035-.053-.018-.053-.035-.052-.035-.053-.018-.053-.035-.052-.035-.053-.017-.052-.035-.053-.018-.053-.018-.052-.035-.053-.017-.053-.018-.052-.017-.07-.035-.053-.018-.07-.017-.053-.018-.07-.018-.053-.017-.07-.018-.07-.017-.052-.018-.071-.017-.07-.018-.07-.017-.07-.018-.07-.017-.088-.018h-.07l-.07-.017-.088-.018-.07-.018-.088-.017-.07-.018-.088-.017-.087-.018-.088-.017-.088-.018-.088-.017-.087-.018-.088-.017-.088-.035-.105-.018-.088-.018-.105-.017-.088-.035-.105-.018-.105-.017-.088-.035-.105-.018-.105-.035-.105-.035-.123-.018-.105-.035-.106-.035-.105-.035-.123-.035-.105-.035-.123-.035-.123-.035-.105-.053-.123-.035-.122-.052-.123-.036-.123-.052-.123-.053-.123-.052-.122-.053-.123-.053-.123-.052-.14-.053-.123-.07-.123-.053-.14-.07-.123-.07-.14-.07-.123-.07-.14-.071-.141-.07-.122-.087-.141-.071-.14-.087-.123-.088-.14-.088-.14-.087-.141-.088-.14-.105-.123-.088-.14-.105-.141-.105-.14-.106-.14-.105-.123-.105-.14-.123-.141-.105-.14-.123-.123-.123-.14-.123-.14-.122-.123-.141-.14-.122-.141-.141-.123-.14-.14-.14-.123-.141-.14-.158-.123-.14-.123-.158-.14-.158-.123-.158-.122-.157-.123-.158-.123-.176-.123-.158-.123-.175-.105-.175-.123-.176-.105-.175-.123-.193-.105-.193-.105-.175-.105-.193-.123-.193-.088-.193-.105-.211-.105-.193-.088-.21-.105-.211-.088-.21-.088-.211-.087-.21-.088-.211-.088-.228-.07-.228-.088-.21-.07-.228-.07-.228-.07-.228-.07-.246-.053-.228-.07-.245-.053-.228-.052-.246-.053-.246-.053-.245-.035-.246-.052-.245-.035-.263-.035-.246-.018-.246-.035-.263-.018-.263-.017-.245-.018-.263-.017-.264-.018-.263v-.263-.263-.28-.264l.018-.263.017-.263.018-.28.017-.264.035-.28.018-.263.035-.281.035-.281.053-.263.052-.28.035-.263.071-.281.052-.281.07-.263.053-.281.07-.28.088-.263.07-.281.088-.281.087-.263.106-.28.087-.281.106-.263.105-.281.105-.263.123-.263.123-.281.122-.263.123-.263.123-.263.14-.263.141-.263.14-.263.158-.263.158-.263.158-.264.157-.245.158-.263.176-.246.175-.245.176-.246.175-.245.193-.246.193-.246.193-.245.193-.228.21-.246.193-.228.211-.228.21-.228.228-.21.211-.228.228-.211.228-.228.228-.21.245-.211.228-.193.246-.21.245-.193.246-.211.263-.175.246-.193.263-.193.263-.175.263-.176.263-.175.281-.176.263-.175.281-.158.28-.158.281-.158.28-.14.299-.158.28-.14.298-.14.299-.123.28-.141.299-.122.315-.123.298-.123.299-.105.315-.105.299-.106.315-.105.316-.088.316-.087.315-.088.316-.088.316-.07.316-.07.315-.07.316-.053.333-.07.316-.053.333-.035.316-.052.333-.035.316-.035.333-.018.334-.035.315-.018h.334l.333-.017h.316.333.333l.316.017.333.018.333.017.316.036.333.017.334.035.315.053.334.035.315.052.316.053.333.07.316.053.316.07.316.088.315.07.316.088.316.087.316.088.315.105.316.106.298.105.298.105.316.123.298.105.298.123.299.14.298.123.28.14.299.141.28.14.299.158.28.158.281.157.28.158.264.158.28.176.263.175.263.175.264.176.263.193.263.175.245.193.246.193.245.211.246.192.246.211.228.21.245.211.228.21.228.211.211.228.228.21.21.228.211.228.21.229.193.245.211.228.193.246.193.228.192.245.176.246.175.245.176.246.175.263.175.246.158.263.158.245.158.263.14.264.158.263.141.263.14.263.123.263.14.263.123.263.123.281.105.263.123.263.105.281.105.263.088.28.105.281.088.263.087.281.071.263.087.281.07.28.071.263.07.281.052.281.053.263.053.28.052.281.053.263.035.281.035.28.035.264.018.28.035.263.017.281.018.263v.263l.017.281v.263.263.263l-.017.263v.263l-.018.263-.017.264-.035.245-.018.263-.035.246-.035.263-.035.245-.035.246-.035.263-.053.246-.053.228-.052.245-.053.246-.052.245-.071.228-.07.228-.052.246-.07.228-.088.228-.07.211-.071.228-.087.228-.088.21-.088.211-.087.228-.088.21-.105.193-.088.211-.105.21-.088.193-.105.193-.105.21-.106.193-.105.176-.123.193-.105.175-.123.193-.105.175-.123.176-.123.175-.105.176-.123.158-.122.175-.141.158-.122.158-.123.158-.123.157-.123.141-.14.158-.123.14-.14.14-.123.141-.14.14-.141.123-.122.14-.141.123-.14.123-.123.122-.14.123-.14.123-.141.105-.123.123-.14.105-.14.105-.141.106-.14.087-.123.106-.14.105-.14.088-.141.087-.14.088-.123.088-.14.087-.14.071-.123.087-.141.07-.14.088-.123.07-.14.07-.123.071-.14.052-.123.07-.123.053-.14.07-.123.053-.123.052-.122.053-.123.053-.123.052-.123.053-.122.035-.123.053-.123.035-.123.052-.105.035-.123.035-.123.036-.105.035-.105.035-.123.035-.105.035-.105.035-.106.017-.105.036-.105.035-.105.017-.106.035-.105.018-.087.017-.106.035-.087.018-.106.018-.087.017-.088.018-.088.017-.087.018-.088.035-.088.017-.088.018h-.087l-.088.017-.07.018-.088.017-.07.018-.088.018-.07.017-.07.018-.07.017-.07.018-.071.017-.07.018-.07.017-.07.018-.07.017-.053.018-.07.017-.07.018-.053.018-.07.017-.053.018-.052.017-.07.018-.053.035-.053.017-.052.018-.053.035-.052.018-.053.017-.053.035-.052.018-.053.035-.053.035-.052.017-.053.035-.035.036-.052.035-.053.017-.053.035-.035.035-.052.035-.053.053-.053.035-.035.035-.052.035-.053.053-.035.035-.053.053-.052.035-.035.052-.053.053-.053.035-.035.053-.052.052-.053.053-.053.052-.052.053-.053.053-.035.052-.053.071-.052.052-.053.053-.07.07-.053.053-.052.07-.053.07-.052.052-.071.071-.052.07-.07.07-.053.07-.07.07-.053.07-.07.071-.07.07-.07.07-.07.07-.071.07-.07.088-.07.07-.07.07-.088.088-.07.07-.088.088-.087.07-.07.088-.088.07-.088.088-.088.087-.105.07-.088.088-.087.07-.105.088-.088.088-.105.07-.106.088-.105.087-.105.07-.105.088-.123.088-.105.07-.123.088-.123.087-.105.071-.123.087-.123.07-.14.088-.123.07-.123.088-.14.07-.14.088-.141.07-.14.07-.14.088-.141.07-.14.07-.158.07-.158.071-.14.07-.158.07-.158.07-.158.053-.175.07-.158.07-.175.053-.158.052-.176.07-.175.053-.175.053-.176.052-.193.053-.175.052-.176.036-.192.052-.193.035-.193.053-.193.035-.193.035-.193.035-.193.035-.211.018-.193.035-.21.017-.211.018-.21.035h-.193l-.21.018-.228.017h-.211l-.21.018h-.211-.228l-.21-.018h-.228l-.229-.017h-.228l-.21-.018-.228-.018-.228-.035-.228-.017-.228-.035-.228-.035-.246-.035-.228-.035-.228-.036-.228-.052-.245-.053-.228-.052-.228-.053-.246-.07-.228-.053-.246-.07-.228-.07-.245-.088-.228-.07-.228-.088-.246-.087-.228-.088-.245-.088-.228-.105-.246-.105-.228-.106-.228-.105-.246-.123-.228-.105-.228-.123-.245-.122-.228-.141-.228-.123-.228-.14-.228-.14-.228-.14-.228-.158-.228-.141-.211-.158-.228-.157-.21-.176-.228-.158-.211-.175-.228-.175-.21-.176-.211-.193-.21-.175-.211-.193-.193-.193-.21-.211-.193-.193-.211-.21-.193-.211-.193-.21-.193-.21-.193-.211-.175-.228-.193-.228-.175-.228-.176-.228-.175-.246-.175-.228-.176-.245-.158-.246-.175-.245-.158-.246-.158-.263-.14-.263-.158-.246-.14-.263-.141-.28-.14-.264-.14-.263-.141-.28-.122-.281-.123-.281-.123-.28-.105-.281-.123-.281-.105-.298-.106-.28-.105-.299-.087-.298-.088-.298-.088-.298-.088-.298-.087-.299-.07-.298-.071-.315-.07-.299-.052-.315-.053-.316-.053-.298-.052-.316-.053-.316-.035-.315-.035-.316-.018-.316-.035-.316-.017-.315-.018-.334v-.315l-.017-.316v-.316-.333l.017-.316.018-.316.017-.333.018-.316.035-.315.017-.334.053-.315.035-.316.053-.333.052-.316.053-.316.053-.315.07-.334.07-.315.088-.316.07-.316.088-.316.087-.315.106-.299.087-.315.105-.316.106-.298.122-.316.123-.298.123-.316.123-.298.123-.298.14-.298.14-.299.158-.298.14-.28.158-.299.158-.28.158-.281.175-.281.158-.28.176-.281.193-.281.175-.263.193-.28.193-.263.193-.263.193-.264.21-.245.211-.263.21-.246.211-.245.21-.246.228-.246.228-.228.228-.245.228-.228.228-.228.246-.211.228-.228.246-.21.245-.211.263-.21.246-.211.263-.193.245-.193.264-.192.263-.193.263-.176.28-.175.264-.176.28-.175.263-.175.281-.158.281-.158.28-.158.281-.14.298-.141.281-.14.28-.14.299-.141.28-.122.298-.123.299-.105.298-.123.298-.105.298-.106.298-.105.299-.088.298-.087.298-.088.298-.088.298-.07.316-.07.298-.07.298-.053.316-.07.298-.053.298-.035.316-.052.298-.035.299-.036.298-.035.316-.017.298-.035h.298l.316-.018.298-.017h.298.298l.298.017h.299l.298.018.298.017.298.018.281.035.298.035.298.035.281.035.298.053.281.035.28.052.281.071.281.052.28.07.281.053.281.088.28.07.263.07.263.088.281.087.263.088.263.088.263.105.246.105.263.106.246.105.263.105.245.123.246.105.245.123.228.123.246.122.228.123.246.141.228.14.228.123.21.14.228.14.211.158.21.141.211.14.21.158.211.158.193.157.21.158.193.158.193.158.193.158.175.175.193.158.176.176.175.175.175.175.158.176.176.175.158.176.157.175.158.175.141.176.157.193.141.175.14.176.14.193.141.175.123.193.14.193.123.175.122.193.123.193.105.176.123.192.105.193.106.193.105.193.088.176.105.193.088.193.087.193.088.175.088.193.07.193.088.193.07.175.07.193.07.193.053.175.07.193.052.193.053.176.07.193.035.175.053.176.053.192.035.176.035.175.052.176.035.193.018.175.035.175.035.158.018.176.017.175.035.176.018.157.017.176v.158l.018.175.017.158v.158.158l.018.157v.158.158.158l-.018.158v.14.158l-.017.14v.141l-.018.158v.14l-.017.14-.018.123-.017.14-.018.141-.017.14-.018.123-.017.123-.018.14-.035.123-.018.123-.017.122-.035.123-.018.123-.017.105-.035.123-.018.105-.035.123-.018.105-.035.105-.035.106-.017.105-.035.105-.035.105-.018.088-.035.105-.035.106-.018.087-.035.088-.035.105-.017.088-.035.088-.018.087-.035.088-.035.07-.018.088-.035.088-.017.07-.035.087-.018.071-.035.087-.018.07-.017.071-.035.07-.018.07-.017.07-.035.07-.018.07-.017.071-.018.07-.017.07-.018.07-.018.053-.017.07-.018.052-.017.071v.07l-.018.052-.017.071v.052l-.018.053v.07l-.017.053v.052.07l-.018.053v.053.07.052" stroke="#fff" stroke-width="1.57864"/><g filter="url(#l)"><rect fill="#fff" fill-opacity=".1" height="78.7797" rx="14.0678" width="78.7797" x="322.955" y="559.898"/><rect height="79.7175" rx="14.5367" stroke="#fff" stroke-opacity=".2" stroke-width=".937853" width="79.7175" x="322.486" y="559.43"/></g><path d="m336.09 568.339c-.567 0-.99.462-.939 1.027l4.782 53.648c.051.565.539 1.152 1.086 1.304l20.296 5.635c.547.152 1.441.152 1.988 0l20.358-5.644c.547-.152 1.036-.738 1.086-1.303l4.791-53.64c.051-.565-.373-1.027-.94-1.027zm43.262 12.304c-.045.504-.123 1.379-.174 1.944l-.126 1.407c-.05.565-.123 1.373-.161 1.796-.038.422-.074.768-.08.768-.007 0-.476 0-1.044 0h-14.391c-.568 0-1.037 0-1.043 0s-.475 0-1.043 0h-7.579c-.567 0-.99.462-.94 1.027l.442 4.942c.051.565.556 1.027 1.124 1.027h6.954 1.042 1.043 11.953 1.951c.505 0 .881.413.836.917-.046.504-.125 1.379-.175 1.944l-1.422 15.932c-.051.565-.115 1.287-.143 1.604s-.498.701-1.045.852l-11.993 3.326c-.546.151-1.001.277-1.009.278-.009.002-.463-.12-1.01-.272l-12.005-3.331c-.547-.152-1.035-.739-1.086-1.304l-.773-8.674c-.05-.565.373-1.027.941-1.027h1.095 2.063 1.634c.567 0 1.073.462 1.123 1.027l.303 3.396c.051.565.54 1.148 1.088 1.296l5.616 1.517c.547.148.997.269 1 .269.002 0 .452-.122 1-.27l5.626-1.52c.547-.148 1.037-.731 1.088-1.296l.61-6.803c.05-.565-.372-1.027-.94-1.027h-6.326c-.567 0-1.036 0-1.043 0-.006 0-.475 0-1.042 0h-13.201c-.568 0-1.073-.463-1.123-1.028l-1.497-16.773c-.051-.565-.129-1.44-.174-1.944s.383-.917.95-.917h15.045 1.042 1.043 15.026c.568 0 .995.413.95.917z" fill="#fff"/></g></svg>