<svg xmlns="http://www.w3.org/2000/svg" xmlns:xlink="http://www.w3.org/1999/xlink" width="500" zoomAndPan="magnify" viewBox="0 0 375 374.999991" height="500" preserveAspectRatio="xMidYMid meet" version="1.0"><defs><clipPath id="cc980d8c82"><path d="M 105.820312 4.769531 L 269.234375 4.769531 L 269.234375 370.226562 L 105.820312 370.226562 Z M 105.820312 4.769531 " clip-rule="nonzero"/></clipPath></defs><g clip-path="url(#cc980d8c82)"><path fill="#ffffff" d="M 264.078125 176.328125 C 258.984375 171.628906 257.21875 170.140625 255.554688 170.566406 C 255.265625 170.425781 255.257812 170.175781 254.957031 169.972656 C 254.605469 169.796875 254.757812 169.566406 250.996094 164.613281 C 242.714844 151.808594 248.148438 145.492188 233.34375 128.480469 C 233.523438 117.003906 231.824219 109.972656 228.582031 102.878906 C 228.796875 98.902344 228.8125 94.5625 227.789062 88.390625 C 227.183594 84.433594 225.25 78.460938 218.859375 76.078125 C 213.265625 74.363281 210.9375 74.761719 206.570312 73.890625 C 197.375 72.25 196.390625 67.804688 195.855469 64.5625 C 197.726562 63.421875 199.546875 60.28125 200.859375 57.382812 C 201.324219 57.191406 201.792969 56.988281 202.292969 56.78125 C 205.269531 55.960938 215.648438 19.902344 193.242188 14.484375 C 193.144531 14.292969 193.035156 14.097656 192.921875 13.914062 C 192.714844 12.476562 190.238281 5.953125 177.28125 4.769531 C 172.90625 4.875 169.4375 4.933594 163.65625 9.394531 C 158.324219 13.335938 156.476562 24.625 157.15625 28.445312 C 157.5625 31.515625 158.730469 41.742188 158.511719 45.398438 C 157.859375 56.3125 149.800781 67.824219 150.765625 72.679688 C 151.039062 74.027344 166.097656 72.113281 167.089844 73.144531 C 167.574219 73.269531 168.882812 73.40625 170.367188 73.492188 C 169.78125 73.640625 169.160156 73.777344 168.488281 73.890625 C 164.113281 74.761719 161.792969 74.363281 156.191406 76.078125 C 149.808594 78.460938 147.875 84.433594 147.269531 88.390625 C 146.242188 94.5625 146.261719 98.902344 146.476562 102.878906 C 143.226562 109.972656 141.535156 117.003906 141.714844 128.480469 C 126.910156 145.492188 132.335938 151.808594 124.0625 164.613281 C 120.300781 169.566406 120.445312 169.796875 120.09375 169.972656 C 119.792969 170.175781 119.792969 170.425781 119.503906 170.566406 C 117.832031 170.140625 116.074219 171.628906 110.972656 176.328125 C 105.207031 178.253906 105.90625 180.058594 105.820312 181.488281 C 105.917969 181.78125 106.15625 182.265625 106.410156 182.28125 C 108.167969 182.394531 109.132812 182.058594 109.988281 181.488281 C 110.980469 181.066406 112.351562 180.183594 112.957031 179.503906 C 113.085938 179.476562 113.527344 179.804688 113.554688 179.902344 C 111.257812 182.28125 110.910156 183.820312 110.578125 184.265625 C 110 185.050781 106.988281 194.152344 108.195312 196.777344 C 108.554688 197.25 109.539062 197.492188 110.378906 197.167969 C 109.824219 198.234375 109.453125 199.761719 109.585938 200.347656 C 109.671875 200.722656 110.636719 201.539062 111.570312 201.339844 C 112.085938 201.230469 112.558594 200.511719 112.957031 199.953125 C 112.984375 200.019531 113.113281 199.859375 113.15625 199.953125 C 113.164062 200.703125 114.257812 201.6875 115.734375 201.136719 C 116.484375 200.566406 117.046875 199.105469 117.917969 197.371094 C 117.976562 197.414062 118.117188 197.570312 118.117188 197.570312 C 118.117188 197.570312 117.753906 198.703125 118.910156 198.761719 C 120.074219 198.96875 124.3125 194.335938 127.832031 179.105469 C 128.304688 177.261719 128.652344 175.664062 129.617188 173.351562 C 138.03125 160.980469 153.128906 147.054688 153.613281 135.433594 C 153.542969 134.257812 154.363281 132.664062 154.605469 132.457031 C 154.847656 132.25 159.9375 122.472656 160.953125 110.816406 C 162.230469 115.882812 164.15625 116.121094 165.121094 117.769531 C 165.105469 119.460938 165.355469 135.355469 165.65625 143.171875 C 165.734375 145.355469 165.527344 145.921875 164.921875 147.347656 C 158.609375 155.320312 141.09375 178.410156 164.519531 251.558594 C 165.484375 257.011719 167.054688 267.019531 166.503906 269.226562 C 156.441406 311.339844 165.339844 299.285156 171.464844 337.714844 C 171.457031 342.816406 171.765625 344.015625 171.464844 344.859375 C 171.164062 345.851562 169.445312 349.042969 170.472656 351.609375 C 170.652344 352.074219 170.375 352.617188 170.472656 353.195312 C 170.144531 354.167969 169.925781 354.671875 169.480469 355.578125 C 168.847656 356.136719 166.21875 360.441406 166.304688 361.734375 C 164.878906 363.574219 163.929688 364.789062 162.335938 365.507812 C 160.730469 366.714844 161.03125 369.398438 161.742188 369.675781 C 163.207031 370.347656 180.152344 370.46875 181.773438 369.675781 C 183.742188 368.140625 183.355469 362.28125 181.972656 356.570312 C 181.84375 355.222656 181.378906 353.496094 181.378906 352.402344 C 181.371094 350.046875 181.886719 348.65625 181.179688 346.449219 C 181.128906 340.90625 181.585938 321.851562 182.570312 319.457031 C 183.90625 313.832031 187.304688 301.261719 184.550781 287.097656 C 184.292969 285.070312 184 283.152344 183.757812 281.539062 C 183.179688 278.199219 182.84375 275.9375 182.570312 272.601562 C 182.53125 270.011719 182.757812 267.421875 182.765625 266.050781 C 182.808594 260.746094 182.980469 258.578125 182.765625 256.921875 C 182.828125 255.765625 182.957031 255.527344 183.164062 254.144531 C 184.140625 248.453125 188.476562 195.320312 184.949219 192.601562 C 186.832031 192.5 186.539062 192.988281 187.527344 192.601562 C 188.511719 192.988281 188.21875 192.5 190.101562 192.601562 C 186.582031 195.320312 190.917969 248.449219 191.886719 254.144531 C 192.101562 255.527344 192.222656 255.765625 192.285156 256.921875 C 192.074219 258.578125 192.25 260.746094 192.285156 266.050781 C 192.292969 267.421875 192.523438 270.011719 192.488281 272.601562 C 192.207031 275.929688 191.871094 278.199219 191.292969 281.539062 C 191.050781 283.152344 190.765625 285.066406 190.503906 287.09375 C 187.753906 301.253906 191.144531 313.824219 192.488281 319.449219 C 193.472656 321.851562 193.921875 340.898438 193.871094 346.449219 C 193.164062 348.65625 193.6875 350.039062 193.679688 352.402344 C 193.671875 353.496094 193.207031 355.222656 193.078125 356.570312 C 191.695312 362.273438 191.308594 368.136719 193.277344 369.667969 C 194.898438 370.46875 211.851562 370.339844 213.308594 369.667969 C 214.027344 369.398438 214.320312 366.707031 212.714844 365.5 C 211.125 364.78125 210.179688 363.574219 208.746094 361.734375 C 208.832031 360.441406 206.207031 356.136719 205.578125 355.578125 C 205.128906 354.671875 204.914062 354.167969 204.585938 353.195312 C 204.683594 352.609375 204.398438 352.066406 204.585938 351.609375 C 205.605469 349.042969 203.886719 345.84375 203.59375 344.859375 C 203.292969 344.015625 203.601562 342.816406 203.59375 337.714844 C 209.710938 299.285156 218.617188 311.332031 208.546875 269.226562 C 208.003906 267.019531 209.574219 257.011719 210.53125 251.558594 C 233.957031 178.410156 216.441406 155.320312 210.136719 147.339844 C 209.523438 145.921875 209.316406 145.355469 209.402344 143.171875 C 209.695312 135.355469 209.953125 119.460938 209.9375 117.769531 C 210.902344 116.121094 212.828125 115.875 214.101562 110.816406 C 215.113281 122.472656 220.203125 132.25 220.445312 132.457031 C 220.695312 132.664062 221.515625 134.257812 221.445312 135.433594 C 221.921875 147.046875 237.019531 160.980469 245.433594 173.351562 C 246.398438 175.664062 246.753906 177.261719 247.226562 179.105469 C 250.746094 194.328125 254.984375 198.96875 256.148438 198.753906 C 257.304688 198.695312 256.941406 197.570312 256.941406 197.570312 C 256.941406 197.570312 257.078125 197.40625 257.140625 197.371094 C 258.011719 199.105469 258.574219 200.566406 259.324219 201.136719 C 260.804688 201.6875 261.886719 200.703125 261.902344 199.945312 C 261.945312 199.859375 262.074219 200.019531 262.101562 199.945312 C 262.5 200.511719 262.972656 201.230469 263.488281 201.339844 C 264.421875 201.539062 265.386719 200.722656 265.472656 200.347656 C 265.605469 199.761719 265.234375 198.226562 264.679688 197.167969 C 265.519531 197.492188 266.5 197.242188 266.855469 196.769531 C 268.070312 194.152344 265.058594 185.050781 264.480469 184.265625 C 264.152344 183.820312 263.800781 182.28125 261.503906 179.894531 C 261.523438 179.804688 261.972656 179.476562 262.101562 179.503906 C 262.707031 180.183594 264.078125 181.066406 265.070312 181.488281 C 265.929688 182.058594 266.890625 182.394531 268.640625 182.28125 C 268.902344 182.265625 269.140625 181.78125 269.238281 181.488281 C 269.152344 180.058594 269.847656 178.253906 264.078125 176.328125 Z M 176.632812 70.316406 C 176.785156 68.023438 176.796875 65.113281 176.726562 61.980469 C 177.511719 63.113281 178.347656 64.042969 179.195312 64.5625 C 178.902344 66.339844 178.476562 68.472656 176.632812 70.316406 " fill-opacity="1" fill-rule="evenodd"/></g></svg>