<svg xmlns="http://www.w3.org/2000/svg" xmlns:xlink="http://www.w3.org/1999/xlink" width="500" zoomAndPan="magnify" viewBox="0 0 375 374.999991" height="500" preserveAspectRatio="xMidYMid meet" version="1.0"><defs><clipPath id="b85c0f8454"><path d="M 137.179688 9.097656 L 240.679688 9.097656 L 240.679688 375 L 137.179688 375 Z M 137.179688 9.097656 " clip-rule="nonzero"/></clipPath></defs><g clip-path="url(#b85c0f8454)"><path fill="#ffffff" d="M 177.949219 374.714844 C 176.417969 374.472656 175.121094 373.878906 174.691406 373.222656 C 174.410156 372.796875 174.34375 372.246094 174.34375 370.441406 C 174.34375 368.269531 174.367188 368.152344 175.027344 366.914062 C 176.066406 364.960938 177.859375 363.304688 182.96875 359.566406 C 184.429688 358.5 185.074219 357.070312 186.335938 352.125 C 186.769531 350.414062 187.957031 343.519531 188.296875 340.726562 C 188.367188 340.121094 188.550781 339.4375 188.699219 339.210938 C 189.171875 338.480469 191.042969 324.640625 192 314.777344 C 192.328125 311.398438 192.816406 306.855469 193.089844 304.6875 C 193.359375 302.515625 193.527344 300.429688 193.46875 300.046875 C 193.308594 299.066406 193.535156 298.09375 194.125 297.222656 C 194.636719 296.46875 194.636719 296.464844 194.746094 290.851562 C 194.933594 281.148438 194.347656 274.433594 192.976562 270.539062 C 192.53125 269.273438 191.953125 267.488281 191.691406 266.570312 C 191.433594 265.652344 190.90625 263.984375 190.523438 262.871094 C 190.089844 261.621094 189.699219 259.921875 189.5 258.441406 C 189.320312 257.121094 188.910156 254.695312 188.589844 253.042969 C 187.394531 246.863281 186.863281 242.667969 186.40625 235.746094 C 186.289062 233.933594 186.019531 230.242188 185.808594 227.550781 C 185.601562 224.855469 185.367188 221.5 185.292969 220.089844 L 185.15625 217.53125 L 184.582031 217.417969 C 184.265625 217.351562 184.003906 217.21875 184.003906 217.117188 C 184.003906 217.011719 183.585938 216.957031 183.070312 216.992188 L 182.136719 217.050781 L 179.808594 222.050781 C 178.527344 224.800781 176.828125 228.339844 176.03125 229.917969 C 171.222656 239.457031 168.464844 246.390625 166.738281 253.28125 C 165.667969 257.539062 164.410156 264.035156 164.410156 265.273438 C 164.410156 265.765625 164.898438 268.613281 165.5 271.601562 C 167.300781 280.59375 167.441406 284.578125 166.191406 290.792969 C 165.835938 292.5625 165.828125 292.792969 166.105469 293.1875 C 166.515625 293.773438 166.488281 294.570312 166.019531 295.695312 C 165.808594 296.210938 165.53125 297.171875 165.402344 297.832031 C 164.855469 300.695312 163.335938 307.007812 162.714844 309.03125 C 161.414062 313.246094 160.804688 316.316406 160.097656 322.199219 C 159.671875 325.726562 159.742188 326.214844 160.871094 327.667969 C 161.367188 328.304688 162.066406 329.457031 162.425781 330.226562 C 162.988281 331.425781 163.082031 331.855469 163.09375 333.226562 C 163.109375 334.628906 163.015625 335.070312 162.332031 336.824219 C 161.40625 339.199219 160.503906 341.070312 160.011719 341.625 C 159.816406 341.84375 159.597656 342.472656 159.523438 343.023438 C 159.449219 343.574219 159.125 345.011719 158.808594 346.222656 C 157.757812 350.230469 157.660156 351.195312 157.625 357.570312 C 157.589844 364.039062 157.542969 364.375 156.429688 365.996094 C 155.078125 367.957031 152.320312 369.824219 149.089844 370.957031 C 147.539062 371.5 147.035156 371.582031 145.113281 371.597656 C 143.101562 371.617188 142.828125 371.574219 141.914062 371.089844 C 140.757812 370.480469 139.136719 368.839844 138.335938 367.472656 C 137.394531 365.867188 137.207031 364.761719 137.394531 361.925781 C 137.574219 359.125 137.703125 358.769531 139.210938 356.839844 C 140.5 355.1875 140.613281 354.933594 142.328125 349.980469 C 143.519531 346.523438 143.96875 344.882812 144.542969 341.835938 C 145.394531 337.335938 145.546875 335.898438 145.796875 329.925781 C 145.902344 327.453125 146.082031 324.121094 146.199219 322.527344 C 146.53125 318.011719 146.839844 308.003906 146.707031 306.230469 C 146.390625 302.101562 145.765625 296.972656 145.511719 296.421875 C 145.152344 295.636719 145.308594 295.035156 146.148438 293.996094 L 146.824219 293.15625 L 146.582031 290.394531 C 146.273438 286.859375 146.273438 275.582031 146.582031 270.539062 C 146.8125 266.738281 146.804688 266.566406 146.316406 263.585938 C 145.734375 260.039062 145.679688 257.464844 146.121094 253.644531 C 146.289062 252.171875 146.5 247.394531 146.609375 242.644531 C 146.953125 227.84375 148.125 215.03125 149.902344 206.589844 C 150.308594 204.671875 150.300781 204.582031 149.707031 204.433594 C 149.429688 204.363281 149.09375 204.160156 148.957031 203.980469 C 148.824219 203.800781 148.332031 203.402344 147.863281 203.101562 C 146.929688 202.492188 146.773438 201.894531 147.3125 200.953125 C 147.46875 200.679688 147.601562 200.332031 147.605469 200.183594 C 147.609375 200.035156 147.027344 199.308594 146.316406 198.570312 L 145.015625 197.226562 L 145.785156 195.636719 C 146.980469 193.164062 150.742188 186.066406 151.96875 183.957031 C 152.582031 182.914062 153.953125 180.753906 155.019531 179.160156 C 158.042969 174.640625 157.96875 174.785156 157.761719 173.859375 C 157.519531 172.777344 157.882812 169.980469 158.601562 167.359375 C 158.917969 166.207031 159.230469 164.765625 159.300781 164.160156 C 159.371094 163.554688 159.703125 162.027344 160.039062 160.761719 C 160.375 159.496094 160.726562 157.871094 160.820312 157.148438 C 160.914062 156.429688 161.21875 155.136719 161.5 154.277344 C 161.78125 153.417969 162.011719 152.332031 162.011719 151.863281 C 162.011719 150.917969 162.394531 149.683594 162.945312 148.835938 C 163.242188 148.386719 163.316406 147.828125 163.34375 145.875 C 163.363281 144.550781 163.519531 142.804688 163.695312 141.996094 C 163.972656 140.714844 163.984375 139.925781 163.796875 135.796875 C 163.609375 131.730469 163.621094 130.816406 163.890625 129.269531 C 164.429688 126.167969 164.664062 121.738281 164.523438 117.472656 C 164.390625 113.476562 164.125 109.328125 163.886719 107.550781 L 163.761719 106.609375 L 162.0625 107.894531 C 161.128906 108.597656 159.675781 109.59375 158.835938 110.109375 C 157.996094 110.621094 156.953125 111.375 156.511719 111.78125 C 154.902344 113.269531 152.523438 115.011719 151.175781 115.691406 C 149.046875 116.761719 146.234375 117.445312 144.488281 117.3125 C 143.703125 117.253906 142.789062 117.066406 142.457031 116.894531 C 140.558594 115.914062 139.15625 112.65625 138.699219 108.15625 C 138.546875 106.652344 138.882812 105.222656 139.824219 103.355469 C 140.890625 101.242188 143.558594 97.5 146.34375 94.203125 C 147.867188 92.398438 149.835938 90.019531 150.722656 88.910156 L 152.332031 86.894531 L 151.671875 85.796875 C 151.289062 85.164062 151.011719 84.433594 151.011719 84.0625 C 151.011719 83.46875 152.089844 80.390625 152.730469 79.148438 C 152.972656 78.679688 153.09375 78.628906 153.773438 78.71875 C 154.304688 78.792969 154.785156 78.703125 155.328125 78.429688 C 155.757812 78.214844 156.378906 77.972656 156.703125 77.894531 C 157.078125 77.804688 157.996094 77.039062 159.21875 75.800781 C 161.269531 73.726562 162.273438 73.183594 163.597656 73.449219 C 164.132812 73.554688 164.277344 73.453125 165.183594 72.324219 C 166.765625 70.351562 169.667969 67.625 172.867188 65.101562 C 174.496094 63.816406 176.832031 61.726562 178.066406 60.457031 C 180.367188 58.082031 181.882812 56.988281 182.867188 56.988281 C 183.179688 56.984375 183.878906 57.179688 184.429688 57.414062 C 185.269531 57.777344 185.539062 57.808594 186.164062 57.625 C 186.644531 57.484375 187.21875 57.472656 187.804688 57.589844 C 189.796875 57.984375 189.777344 58.070312 188.328125 55.335938 C 186.96875 52.773438 186.316406 50.785156 186.105469 48.585938 C 186.035156 47.871094 185.957031 47.0625 185.929688 46.785156 C 185.875 46.25 185.183594 45.125 184.191406 43.960938 C 183.355469 42.980469 183.214844 42.210938 183.210938 38.5625 C 183.207031 35.230469 183.203125 35.222656 182.132812 34.695312 C 181.859375 34.558594 181.46875 33.886719 181.039062 32.820312 C 180.464844 31.375 180.371094 30.898438 180.339844 29.222656 C 180.324219 28.160156 180.382812 26.660156 180.476562 25.890625 C 180.640625 24.53125 180.675781 24.464844 181.726562 23.488281 C 182.835938 22.457031 183.175781 21.964844 184.199219 19.886719 C 185.34375 17.566406 188.074219 14.765625 190.882812 13.03125 C 193.183594 11.613281 197.214844 10.023438 199.84375 9.503906 C 201.894531 9.09375 207.285156 9.09375 209.699219 9.5 C 211.546875 9.808594 213.082031 10.398438 213.261719 10.867188 C 213.339844 11.070312 213.660156 11.089844 214.730469 10.957031 C 217.183594 10.648438 219.59375 11.25 220.921875 12.503906 C 221.574219 13.121094 221.628906 13.253906 221.507812 13.917969 C 221.429688 14.320312 221.234375 14.785156 221.074219 14.945312 C 220.8125 15.207031 220.820312 15.285156 221.121094 15.617188 C 221.308594 15.828125 221.558594 15.984375 221.679688 15.972656 C 222.351562 15.894531 222.644531 16.101562 223.316406 17.113281 C 223.726562 17.726562 224.179688 18.277344 224.324219 18.332031 C 224.46875 18.386719 224.8125 18.929688 225.089844 19.539062 C 225.46875 20.363281 225.578125 20.878906 225.515625 21.566406 C 225.472656 22.078125 225.429688 22.683594 225.417969 22.914062 C 225.40625 23.144531 225.183594 23.566406 224.917969 23.847656 L 224.441406 24.363281 L 225.425781 24.597656 C 225.96875 24.730469 226.582031 24.789062 226.792969 24.734375 C 227.007812 24.679688 227.308594 24.785156 227.488281 24.984375 C 227.773438 25.300781 227.769531 25.375 227.410156 25.828125 C 227.195312 26.101562 226.980469 26.589844 226.9375 26.910156 C 226.878906 27.335938 226.761719 27.472656 226.5 27.425781 C 226.136719 27.359375 226.210938 27.527344 227.34375 29.320312 C 227.492188 29.554688 227.875 30.5 228.1875 31.417969 C 228.503906 32.339844 229.003906 33.628906 229.300781 34.289062 C 229.597656 34.949219 230.164062 36.703125 230.558594 38.1875 C 231.253906 40.800781 231.277344 41.003906 231.292969 44.585938 C 231.304688 46.621094 231.433594 49.140625 231.578125 50.1875 C 231.835938 52.027344 231.828125 52.203125 231.214844 55.847656 C 230.617188 59.421875 230.355469 60.722656 229.695312 63.484375 C 229.433594 64.59375 229.175781 67.070312 229.113281 69.152344 C 229.078125 70.253906 228.644531 70.609375 227.476562 70.496094 C 226.6875 70.417969 226.605469 70.457031 226.320312 71.046875 C 226.148438 71.394531 225.777344 71.863281 225.492188 72.082031 C 224.363281 72.949219 224.160156 73.214844 224.277344 73.648438 C 224.339844 73.886719 224.394531 74.71875 224.394531 75.5 C 224.398438 77.144531 224.363281 77.097656 226.996094 79.121094 C 227.949219 79.851562 229.683594 80.902344 230.941406 81.507812 C 232.714844 82.359375 233.292969 82.746094 233.691406 83.332031 C 233.96875 83.738281 234.195312 84.199219 234.195312 84.351562 C 234.195312 84.507812 234.546875 85.015625 234.980469 85.484375 C 236.375 87 237.304688 89.320312 238.007812 93.054688 C 238.636719 96.371094 238.589844 99.316406 237.828125 104.675781 C 236.976562 110.679688 236.65625 113.550781 236.292969 118.472656 C 235.703125 126.402344 235.398438 129.421875 234.949219 131.640625 C 234.578125 133.472656 234.5 134.523438 234.5 137.566406 C 234.5 141.136719 234.519531 141.320312 235.074219 142.867188 C 235.390625 143.746094 235.71875 145.140625 235.800781 145.964844 C 235.96875 147.589844 236.710938 151.867188 236.875 152.132812 C 236.929688 152.222656 237.164062 153.773438 237.398438 155.578125 C 237.78125 158.539062 237.800781 159.1875 237.609375 162.191406 C 237.488281 164.023438 237.394531 167.421875 237.394531 169.742188 L 237.394531 173.960938 L 238.585938 173.960938 C 240.105469 173.960938 240.324219 174.261719 239.992188 175.867188 C 239.867188 176.464844 239.824219 177.046875 239.894531 177.15625 C 239.960938 177.269531 239.832031 177.601562 239.601562 177.890625 C 239.359375 178.203125 239.234375 178.574219 239.300781 178.785156 C 239.367188 178.984375 239.253906 179.488281 239.054688 179.902344 C 238.746094 180.546875 238.703125 181.109375 238.742188 183.722656 C 238.769531 185.417969 238.707031 186.945312 238.601562 187.144531 C 238.492188 187.34375 237.996094 187.699219 237.496094 187.933594 L 236.582031 188.363281 L 236.617188 191.109375 C 236.652344 193.816406 236.246094 197.355469 235.472656 201.050781 C 234.867188 203.941406 234.582031 205.921875 234.390625 208.546875 C 234.148438 211.882812 233.851562 213.03125 232.816406 214.617188 C 232.375 215.296875 231.480469 216.84375 230.832031 218.050781 C 229.933594 219.734375 229.472656 220.375 228.867188 220.785156 C 228.386719 221.109375 227.550781 222.109375 226.714844 223.347656 C 225.964844 224.464844 225.234375 225.421875 225.089844 225.480469 C 224.714844 225.621094 224.046875 225.214844 223.898438 224.753906 C 223.832031 224.539062 223.867188 224.027344 223.980469 223.617188 C 224.09375 223.207031 224.164062 222.847656 224.132812 222.820312 C 224.105469 222.789062 223.542969 222.894531 222.890625 223.050781 C 220.71875 223.566406 220.191406 223.390625 220.480469 222.242188 C 220.636719 221.628906 221.476562 221.089844 223.160156 220.53125 C 223.855469 220.296875 224.386719 220.070312 224.339844 220.027344 C 224.296875 219.980469 223.59375 219.878906 222.777344 219.796875 C 221.3125 219.652344 221.296875 219.644531 221.296875 219.070312 C 221.296875 218.171875 222.074219 217.71875 223.828125 217.597656 C 225.511719 217.484375 226.796875 216.945312 226.796875 216.363281 C 226.796875 216.152344 226.847656 215.851562 226.90625 215.695312 C 226.984375 215.496094 226.835938 215.367188 226.433594 215.289062 C 226.070312 215.214844 225.597656 214.859375 225.203125 214.359375 C 224.554688 213.542969 224.199219 213.34375 224.195312 213.800781 C 224.191406 214.273438 223.214844 216.148438 222.714844 216.648438 C 222.046875 217.316406 221.140625 217.3125 220.464844 216.636719 C 219.984375 216.15625 219.960938 216.046875 220.09375 214.804688 C 220.171875 214.078125 220.359375 213.078125 220.511719 212.578125 C 220.660156 212.078125 220.761719 211.648438 220.730469 211.617188 C 220.59375 211.484375 218.074219 212.203125 217.789062 212.457031 C 217.421875 212.789062 216.597656 212.855469 216.597656 212.550781 C 216.597656 212.09375 216.035156 212.394531 215.945312 212.902344 C 214.921875 218.660156 213.414062 226.847656 212.714844 230.449219 C 210.171875 243.554688 209.484375 249.65625 209.824219 256.125 C 210.027344 260.007812 210.4375 262.453125 211.71875 267.460938 C 213.761719 275.449219 214.246094 278.707031 214.234375 284.335938 C 214.226562 288.566406 213.878906 291.597656 212.964844 295.433594 L 212.347656 298.039062 L 212.875 298.8125 C 213.507812 299.746094 213.519531 300.011719 212.988281 301.039062 C 212.589844 301.8125 210.976562 308.121094 210.304688 311.53125 C 210.121094 312.464844 209.304688 315.792969 208.488281 318.929688 C 207.148438 324.070312 206.207031 328.804688 206.203125 330.429688 C 206.203125 330.890625 206.464844 331.3125 207.300781 332.199219 C 208.003906 332.941406 208.734375 334.027344 209.3125 335.199219 C 210.167969 336.921875 210.226562 337.132812 210.222656 338.644531 C 210.21875 339.527344 210.128906 340.65625 210.015625 341.152344 C 209.683594 342.628906 208.601562 345.558594 208.035156 346.523438 L 207.5 347.421875 L 207.492188 354.574219 C 207.480469 361.03125 207.445312 361.757812 207.140625 362.066406 C 206.832031 362.375 206.722656 362.378906 205.949219 362.113281 L 205.101562 361.820312 L 205.085938 358.820312 C 205.070312 356.117188 204.886719 353.96875 204.683594 354.167969 C 204.40625 354.449219 203.300781 359.691406 202.796875 363.117188 C 202.464844 365.375 202 367.800781 201.765625 368.515625 C 200.757812 371.570312 197.625 373.3125 191.105469 374.4375 C 188.988281 374.804688 179.753906 374.996094 177.949219 374.710938 Z M 226.679688 211.082031 C 226.664062 209.566406 226.574219 208.890625 226.351562 208.570312 C 226.050781 208.144531 226.03125 208.164062 225.417969 209.476562 C 224.414062 211.617188 224.417969 211.65625 225.480469 212.125 C 225.988281 212.351562 226.457031 212.671875 226.519531 212.84375 C 226.585938 213.015625 226.652344 213.152344 226.667969 213.152344 C 226.683594 213.152344 226.6875 212.222656 226.679688 211.082031 Z M 226.933594 196.34375 C 228.511719 194.703125 228.671875 194.265625 228.527344 192.058594 C 228.460938 191.066406 228.347656 189.832031 228.277344 189.3125 C 228.152344 188.417969 228.105469 188.359375 227.421875 188.238281 C 227.023438 188.164062 226.542969 188.027344 226.351562 187.929688 C 225.824219 187.65625 225.0625 186.199219 224.699219 184.757812 C 224.378906 183.507812 223.40625 181.085938 223.277344 181.214844 C 223.214844 181.277344 223.761719 184.632812 224.867188 190.960938 C 225.148438 192.554688 225.4375 194.695312 225.515625 195.710938 C 225.59375 196.726562 225.679688 197.558594 225.710938 197.558594 C 225.742188 197.558594 226.292969 197.011719 226.933594 196.34375 Z M 224.273438 176.171875 C 223.695312 174.855469 222.0625 169.0625 221.507812 166.363281 C 219.816406 158.152344 219.695312 157.121094 219.792969 152.066406 C 219.839844 149.539062 219.882812 145.308594 219.886719 142.667969 C 219.894531 138.03125 219.871094 137.722656 219.148438 133.472656 C 218.335938 128.6875 218.007812 125.976562 218.003906 124.003906 L 218 122.730469 L 216.871094 124.300781 C 213.746094 128.660156 212.191406 131.53125 211.90625 133.472656 C 211.785156 134.304688 211.617188 134.605469 210.894531 135.269531 C 209.882812 136.203125 209.601562 136.832031 209.601562 138.160156 C 209.601562 138.691406 209.410156 139.742188 209.179688 140.496094 C 208.839844 141.589844 208.785156 142.089844 208.914062 142.96875 C 209.15625 144.667969 209.117188 146.726562 208.808594 148.285156 L 208.53125 149.699219 L 209.160156 151.039062 C 209.851562 152.519531 213.167969 157.546875 216.300781 161.863281 C 219.699219 166.546875 219.785156 166.71875 219.027344 167.191406 C 218.675781 167.414062 218.703125 167.527344 219.550781 169.34375 C 220.199219 170.726562 222.363281 176.621094 222.394531 177.09375 C 222.398438 177.109375 222.851562 176.980469 223.402344 176.804688 C 224.179688 176.554688 224.378906 176.410156 224.273438 176.171875 Z M 194.316406 67.710938 C 194.96875 67.453125 195.84375 67.074219 196.257812 66.875 L 197.011719 66.507812 L 196.015625 66.136719 C 194.992188 65.753906 194.867188 65.628906 193.003906 63.203125 L 191.902344 61.769531 L 191.796875 62.628906 C 191.730469 63.164062 191.796875 63.707031 191.972656 64.074219 C 192.21875 64.59375 192.214844 64.734375 191.917969 65.285156 C 191.652344 65.773438 191.617188 66.121094 191.746094 66.890625 C 191.90625 67.84375 192.054688 67.996094 193.015625 68.164062 C 193.078125 68.175781 193.664062 67.972656 194.316406 67.710938 Z M 185.804688 65.59375 C 186.585938 64.945312 186.597656 64.984375 185.515625 64.4375 L 184.726562 64.035156 L 183.1875 65.683594 L 183.746094 65.925781 C 184.605469 66.296875 185.042969 66.226562 185.804688 65.59375 Z M 185.804688 65.59375 " fill-opacity="1" fill-rule="nonzero"/></g></svg>