<svg xmlns="http://www.w3.org/2000/svg" xmlns:xlink="http://www.w3.org/1999/xlink" width="500" zoomAndPan="magnify" viewBox="0 0 375 374.999991" height="500" preserveAspectRatio="xMidYMid meet" version="1.0"><defs><clipPath id="b8030ddcd3"><path d="M 95 6.234375 L 276 6.234375 L 276 373 L 95 373 Z M 95 6.234375 " clip-rule="nonzero"/></clipPath></defs><g clip-path="url(#b8030ddcd3)"><path fill="#ffffff" d="M 115.273438 368.667969 C 114.792969 366.351562 112.96875 359.390625 111.214844 353.203125 C 109.464844 347.015625 107.84375 339.722656 107.613281 337 C 107.378906 334.273438 105.992188 327.960938 104.527344 322.96875 C 98.679688 303.066406 96.34375 256.152344 100.375 239.589844 C 101.5625 234.695312 101.398438 233.519531 99.058594 230.234375 C 95.707031 225.527344 94.476562 215.71875 96.359375 208.738281 C 98.347656 201.371094 102.019531 197.027344 131.027344 167.722656 L 156.382812 142.113281 L 155.753906 135.960938 C 155.214844 130.6875 150.476562 115.335938 148.886719 113.710938 C 148.597656 113.417969 143.429688 113.125 137.402344 113.0625 C 124.871094 112.9375 123.144531 111.929688 123.347656 104.851562 C 123.425781 102.179688 122.824219 99.183594 122.011719 98.199219 C 121.199219 97.21875 120.441406 93.832031 120.332031 90.679688 C 120.222656 87.527344 119.917969 84.800781 119.660156 84.621094 C 119.398438 84.441406 117.570312 83.285156 115.601562 82.054688 L 112.015625 79.808594 L 117.234375 72.125 C 122.386719 64.539062 122.441406 64.324219 121.644531 55.636719 C 120.632812 44.621094 122.589844 37.007812 128.21875 30.058594 C 130.5625 27.164062 132.890625 23.464844 133.390625 21.832031 C 134.648438 17.722656 142.621094 12.765625 150.328125 11.300781 C 153.875 10.628906 158.53125 9.398438 160.667969 8.574219 C 166.050781 6.496094 181.519531 6.4375 188.539062 8.472656 C 194.671875 10.25 202.554688 17.390625 209.8125 27.734375 C 214.160156 33.929688 219.167969 35.730469 223.785156 32.757812 C 227.332031 30.472656 238.328125 28.316406 235.210938 30.515625 C 233.625 31.636719 233.859375 31.898438 236.507812 31.949219 C 240.335938 32.023438 246.304688 35.816406 242.589844 35.816406 C 239.648438 35.816406 239.828125 36.984375 243.375 40.933594 C 246.855469 44.804688 249.894531 53.015625 249.746094 58.15625 C 249.691406 60.140625 248.453125 63.28125 246.996094 65.132812 C 245.539062 66.984375 243.058594 72.503906 241.480469 77.402344 C 239.070312 81.460938 237.246094 85.519531 242.421875 89.578125 C 245.367188 92.113281 245.71875 92.855469 243.960938 92.855469 C 241.328125 92.859375 241.09375 94.503906 243.179688 98.398438 C 244.667969 101.179688 245.109375 103.453125 245.417969 109.957031 C 245.515625 111.988281 247.742188 115.941406 250.769531 119.433594 C 255.605469 125.019531 257.085938 128.890625 255.132812 130.839844 C 254.683594 131.292969 253.183594 130.222656 251.796875 128.464844 C 248.136719 123.808594 247.0625 124.484375 246.621094 131.710938 C 246.09375 140.390625 243.464844 138.683594 241.570312 128.433594 C 239.746094 118.554688 239.425781 118.140625 236.347656 121.675781 C 233.976562 124.394531 233.824219 124.421875 234.382812 122.027344 C 236.160156 114.394531 236.515625 109.710938 235.316406 109.710938 C 233.558594 109.710938 227.433594 118.851562 227.433594 121.472656 C 227.433594 123.796875 221.472656 127.039062 219.476562 125.804688 C 218.773438 125.371094 217.066406 126.035156 215.683594 127.285156 C 213.242188 129.496094 213.171875 129.425781 213.171875 124.820312 C 213.171875 119.929688 211.132812 118.433594 209.667969 122.25 C 208.421875 125.492188 216.144531 137.734375 231.316406 156.5625 C 241.679688 169.421875 248.1875 197.625 248.167969 229.59375 C 248.160156 244.195312 251.832031 264.207031 256.621094 275.648438 C 258.261719 279.570312 260.304688 286.28125 261.15625 290.558594 C 262.011719 294.835938 264.09375 303.585938 265.785156 310.003906 C 268.84375 321.621094 269.789062 327.035156 273.464844 354 C 276.316406 374.914062 277.5 372.878906 262.484375 372.878906 L 249.570312 372.878906 L 248.191406 367.367188 C 245.835938 357.945312 242.941406 348.117188 238.363281 333.984375 C 230.898438 310.953125 230.351562 308.96875 229.042969 300.28125 C 227.878906 292.53125 225.175781 284.292969 218.203125 267.222656 C 216.746094 263.65625 213.667969 255.355469 211.363281 248.773438 C 209.054688 242.191406 206.886719 236.523438 206.542969 236.179688 C 205.097656 234.734375 192.269531 262.558594 190.640625 270.671875 C 188.777344 279.949219 185.714844 301.433594 192.585938 310.828125 C 196.570312 316.277344 220.730469 335.707031 224.839844 372.0625 C 224.890625 372.507812 200.382812 372.878906 170.496094 372.878906 L 116.148438 372.878906 L 115.273438 368.664062 Z M 204.707031 105.890625 C 205.125 105.214844 204.285156 104.027344 202.835938 103.253906 C 200.597656 102.054688 200.207031 102.234375 200.207031 104.484375 C 200.207031 107.164062 203.316406 108.136719 204.707031 105.890625 Z M 206.691406 99.34375 C 206.691406 98.628906 205.726562 98.046875 204.542969 98.046875 C 202.648438 98.046875 202.6875 97.726562 204.867188 95.320312 C 206.222656 93.824219 209.082031 91.6875 211.222656 90.574219 C 213.519531 89.382812 214.429688 88.324219 213.441406 87.988281 C 212.128906 87.546875 212.101562 87.019531 213.332031 85.539062 C 214.191406 84.503906 215.058594 82.082031 215.265625 80.15625 C 215.46875 78.230469 216.328125 73.957031 217.175781 70.660156 C 218.75 64.546875 218.011719 57.859375 215.765625 57.859375 C 215.078125 57.859375 214.1875 59.464844 213.785156 61.425781 C 211.808594 71.0625 210.121094 75.058594 205.371094 81.382812 C 201.03125 87.160156 200.207031 89.242188 200.207031 94.449219 C 200.207031 100.1875 200.445312 100.640625 203.449219 100.640625 C 205.230469 100.640625 206.691406 100.058594 206.691406 99.34375 Z M 206.691406 99.34375 " fill-opacity="1" fill-rule="nonzero"/></g></svg>