<svg xmlns="http://www.w3.org/2000/svg" xmlns:xlink="http://www.w3.org/1999/xlink" width="500" zoomAndPan="magnify" viewBox="0 0 375 374.999991" height="500" preserveAspectRatio="xMidYMid meet" version="1.0"><defs><clipPath id="f2f9ddf367"><path d="M 80.460938 3.0625 L 288 3.0625 L 288 372.0625 L 80.460938 372.0625 Z M 80.460938 3.0625 " clip-rule="nonzero"/></clipPath></defs><path fill="#ffffff" d="M 250.746094 162.734375 C 241.734375 152.652344 232.441406 142.621094 226.769531 130.175781 C 219.730469 120.089844 212.320312 109.941406 207.359375 98.679688 C 206.050781 92.761719 204.984375 90.140625 204.011719 97.695312 C 202.265625 108.132812 199.09375 119.027344 201.804688 129.511719 C 206.421875 137.140625 210.710938 145.007812 211.714844 154.039062 C 214.992188 167.875 216.65625 182.214844 213.589844 196.324219 C 210.40625 210.984375 207.480469 225.808594 204.207031 240.382812 C 202.9375 253.414062 205.761719 266.402344 204.40625 279.390625 C 203.425781 284.753906 201.523438 289.917969 203.566406 295.238281 C 205.207031 301.898438 204.359375 309.351562 206.691406 315.636719 C 210.78125 319.039062 215.796875 323.609375 213.121094 329.5 C 210.273438 339.808594 219.1875 349.082031 217.867188 359.503906 C 219.59375 367.394531 208.441406 370.65625 204.246094 364.382812 C 200.621094 359.925781 198.515625 353.789062 197.597656 348.332031 C 197.667969 340.273438 200.578125 331.96875 196.074219 324.566406 C 195.027344 318.144531 193.5625 315.40625 191.578125 323.308594 C 187.019531 332.324219 189.894531 342.644531 187.34375 352.113281 C 187.355469 358.734375 188.535156 367.625 180.871094 370.515625 C 176.964844 369.921875 173.875 371.207031 170.125 371.296875 C 166.667969 371.796875 161.804688 370.0625 164.855469 364.8125 C 167 357.789062 171.253906 351.4375 172.445312 344.027344 C 174.113281 337.738281 175.71875 331.609375 178.566406 325.753906 C 180.710938 311.257812 180.539062 296.375 180.691406 281.761719 C 178.5 274.152344 174.570312 267.113281 172.757812 259.339844 C 170.707031 250.597656 173.320312 240.929688 168.4375 232.714844 C 161.050781 213.507812 150.230469 195.179688 147.347656 174.570312 C 147.105469 165.894531 150 157.695312 151.496094 149.304688 C 152.050781 139.5625 157.683594 130.039062 154.636719 120.261719 C 151.855469 127.597656 150.542969 135.800781 144.316406 141.144531 C 134.734375 152.164062 126.269531 164.566406 114.210938 173.058594 C 109.796875 175.070312 103.679688 172.875 101.515625 178.429688 C 93.652344 183.566406 100.066406 172.066406 102.863281 170.671875 C 97.527344 168.703125 93.246094 174.179688 87.722656 172.945312 C 80.894531 174.402344 80.480469 169.742188 87.640625 169.941406 C 94.191406 168.824219 99.847656 164.152344 106.890625 165.347656 C 114.507812 167.003906 117.277344 157.96875 121.484375 153.4375 C 128.316406 144.085938 132.007812 132.984375 138.332031 123.363281 C 144.105469 109.21875 146.179688 93.679688 146.957031 78.484375 C 146.625 73.121094 147.53125 65.085938 154.902344 65.871094 C 161.082031 65.453125 167.761719 65.128906 170.058594 57.683594 C 171.785156 52.578125 168.21875 48.078125 166.996094 43.421875 C 167.75 39.464844 160.082031 39.097656 162.222656 32.660156 C 157.183594 22.464844 164.851562 10.878906 173.394531 6.011719 C 180.621094 4.976562 190.195312 3.09375 194.992188 10.128906 C 198.695312 20.203125 202.082031 32.171875 195.417969 41.832031 C 191.0625 42.277344 190.296875 49.015625 189.195312 52.675781 C 187.710938 62.53125 199.980469 63.574219 207.429688 63.332031 C 215.214844 64.109375 215.5 73.601562 218.164062 79.285156 C 222.617188 94.074219 228.808594 108.855469 239.640625 120.171875 C 243.820312 132.722656 248.160156 145.464844 256.175781 156.15625 C 262.8125 155.980469 269.738281 155.882812 275.332031 160.113281 C 280.207031 159.492188 291.078125 164.277344 280.378906 163.804688 C 275.03125 164.988281 270.964844 160.9375 265.914062 161.203125 C 260.589844 160.847656 275.566406 171.742188 267.183594 170.367188 C 264.117188 166.640625 260.835938 164.429688 255.777344 164.671875 C 253.992188 164.265625 252.28125 163.765625 250.746094 162.734375 Z M 250.746094 162.734375 " fill-opacity="1" fill-rule="nonzero"/><g clip-path="url(#f2f9ddf367)"><path stroke-linecap="butt" transform="matrix(0.470767, 0, 0, 0.470767, 23.840591, -24.014967)" fill="none" stroke-linejoin="miter" d="M 481.990776 396.691395 C 462.848158 375.275228 443.108111 353.966931 431.059962 327.530702 C 416.107644 306.106238 400.367052 284.549011 389.82907 260.626962 C 387.049366 248.056062 384.784114 242.488357 382.718006 258.535961 C 379.008968 280.707212 372.271298 303.849284 378.029849 326.120106 C 387.83764 342.325365 396.948431 359.036779 399.08092 378.220885 C 406.042626 407.611068 409.577414 438.071644 403.063779 468.042661 C 396.301216 499.183643 390.086296 530.673125 383.132887 561.631558 C 380.43616 589.312431 386.435342 616.90203 383.556066 644.491628 C 381.473363 655.884266 377.43242 666.853724 381.772077 678.155088 C 385.257079 692.302536 383.456495 708.134402 388.410176 721.485278 C 397.097788 728.712509 407.751937 738.420728 402.068065 750.933545 C 396.019097 772.830974 414.954274 792.529532 412.149677 814.667592 C 415.817227 831.428792 392.127511 838.357308 383.215864 825.031324 C 375.515669 815.563736 371.04325 802.528169 369.093308 790.936389 C 369.242665 773.818391 375.424395 756.177643 365.857235 740.453646 C 363.633472 726.812353 360.521863 720.995719 356.30667 737.781811 C 346.623343 756.932727 352.730394 778.855049 347.312046 798.968488 C 347.336939 813.03296 349.842821 831.918352 333.562884 838.058593 C 325.26526 836.797355 318.70184 839.527273 310.736121 839.718118 C 303.392724 840.780214 293.062182 837.096069 299.542626 825.944063 C 304.098022 811.024935 313.134134 797.532999 315.664909 781.792407 C 319.207995 768.433233 322.618318 755.414262 328.667286 742.976124 C 333.222681 712.183642 332.857585 680.569696 333.181193 649.528286 C 328.526226 633.364515 320.178817 618.412197 316.328719 601.899926 C 311.972467 583.329844 317.523577 562.793226 307.151547 545.343323 C 291.460741 504.543908 268.476323 465.611457 262.352677 421.833195 C 261.838225 403.404173 267.986764 385.987461 271.164754 368.164165 C 272.343016 347.469892 284.308189 327.240285 277.836043 306.471333 C 271.928135 322.05427 269.140133 339.47928 255.913721 350.830429 C 235.55965 374.238026 217.5787 400.582981 191.963936 418.622015 C 182.587621 422.895291 169.593542 418.232026 164.996659 430.031247 C 148.293542 440.942622 161.91824 416.514418 167.859339 413.552166 C 156.524785 409.370164 147.430589 421.003433 135.697749 418.381383 C 121.193503 421.476397 120.313955 411.577332 135.523499 412.000511 C 149.438614 409.62739 161.453573 399.703433 176.414189 402.242505 C 192.594555 405.760698 198.47757 386.568294 207.414111 376.943051 C 221.926655 357.07854 229.767909 333.496693 243.201762 313.059646 C 255.46565 283.013951 259.871688 250.006004 261.522915 217.728248 C 260.817617 206.335611 262.742665 189.267399 278.400281 190.935221 C 291.527122 190.047375 305.716058 189.358673 310.595061 173.543402 C 314.262611 162.698408 306.68688 153.139545 304.089724 143.248778 C 305.691166 134.843285 289.40293 134.063308 293.950028 120.388825 C 283.246094 98.732027 299.534329 74.121275 317.681232 63.782436 C 333.031836 61.583566 353.369311 57.584111 363.558793 72.528131 C 371.42494 93.927703 378.61898 119.351622 364.463234 139.871645 C 355.211384 140.817574 353.585049 155.130975 351.24512 162.905848 C 348.092023 183.840753 374.154859 186.056218 389.978427 185.541766 C 406.515591 187.192993 407.121317 207.356218 412.780297 219.429261 C 422.239588 250.844064 435.391321 282.242272 458.400632 306.280488 C 467.279089 332.940753 476.497749 360.007601 493.524473 382.718197 C 507.622135 382.344804 522.333822 382.137363 534.216019 391.12369 C 544.571453 389.804368 567.66374 399.968957 544.936549 398.964944 C 533.577102 401.479124 524.939276 392.874488 514.210448 393.438727 C 502.900787 392.683643 534.713877 415.825715 516.907176 412.904952 C 510.393542 404.989019 503.423538 400.292564 492.678115 400.807016 C 488.886101 399.944064 485.251742 398.881968 481.990776 396.691395 Z M 481.990776 396.691395 " stroke="#000000" stroke-width="1" stroke-opacity="1" stroke-miterlimit="4"/></g></svg>